<svg xmlns="http://www.w3.org/2000/svg" xmlns:xlink="http://www.w3.org/1999/xlink" width="250" zoomAndPan="magnify" viewBox="0 0 187.5 56.249996" height="75" preserveAspectRatio="xMidYMid meet" version="1.0"><defs><g/><clipPath id="c63d178cb9"><path d="M 58.292969 10.46875 L 72.355469 10.46875 L 72.355469 31.191406 L 58.292969 31.191406 Z M 58.292969 10.46875 " clip-rule="nonzero"/></clipPath><clipPath id="1439ee3c26"><path d="M 62.808594 14.625 L 67.863281 14.625 L 67.863281 19.683594 L 62.808594 19.683594 Z M 62.808594 14.625 " clip-rule="nonzero"/></clipPath><clipPath id="8c8723f77a"><path d="M 65.335938 14.625 C 63.941406 14.625 62.808594 15.757812 62.808594 17.152344 C 62.808594 18.550781 63.941406 19.683594 65.335938 19.683594 C 66.734375 19.683594 67.863281 18.550781 67.863281 17.152344 C 67.863281 15.757812 66.734375 14.625 65.335938 14.625 Z M 65.335938 14.625 " clip-rule="nonzero"/></clipPath><clipPath id="5999013bc5"><path d="M 3.527344 3.710938 L 51.636719 3.710938 L 51.636719 51.820312 L 3.527344 51.820312 Z M 3.527344 3.710938 " clip-rule="nonzero"/></clipPath><clipPath id="1b9fc57ad6"><path d="M 36.457031 13.203125 L 40.15625 13.203125 L 40.15625 19 L 36.457031 19 Z M 36.457031 13.203125 " clip-rule="nonzero"/></clipPath><clipPath id="e8a4f68b36"><path d="M 18.742188 21.46875 L 22.441406 21.46875 L 22.441406 27.386719 L 18.742188 27.386719 Z M 18.742188 21.46875 " clip-rule="nonzero"/></clipPath><clipPath id="9604b77f7a"><path d="M 34.566406 36.167969 L 38.269531 36.167969 L 38.269531 42 L 34.566406 42 Z M 34.566406 36.167969 " clip-rule="nonzero"/></clipPath></defs><g fill="#042698" fill-opacity="1"><g transform="translate(59.785762, 45.12125)"><g><path d="M 3.28125 0 L 1.921875 0 L 1.921875 -5.296875 L 0.1875 -5.296875 L 0.1875 -6.421875 L 5.03125 -6.421875 L 5.03125 -5.296875 L 3.28125 -5.296875 Z M 3.28125 0 "/></g></g></g><g fill="#042698" fill-opacity="1"><g transform="translate(65.741128, 45.12125)"><g><path d="M 6.640625 -3.21875 C 6.640625 -2.15625 6.375 -1.335938 5.84375 -0.765625 C 5.320312 -0.191406 4.566406 0.09375 3.578125 0.09375 C 2.597656 0.09375 1.84375 -0.191406 1.3125 -0.765625 C 0.78125 -1.335938 0.515625 -2.160156 0.515625 -3.234375 C 0.515625 -4.296875 0.78125 -5.109375 1.3125 -5.671875 C 1.84375 -6.242188 2.601562 -6.53125 3.59375 -6.53125 C 4.582031 -6.53125 5.335938 -6.242188 5.859375 -5.671875 C 6.378906 -5.109375 6.640625 -4.289062 6.640625 -3.21875 Z M 1.953125 -3.21875 C 1.953125 -2.5 2.085938 -1.957031 2.359375 -1.59375 C 2.628906 -1.238281 3.035156 -1.0625 3.578125 -1.0625 C 4.671875 -1.0625 5.21875 -1.78125 5.21875 -3.21875 C 5.21875 -4.664062 4.675781 -5.390625 3.59375 -5.390625 C 3.050781 -5.390625 2.640625 -5.207031 2.359375 -4.84375 C 2.085938 -4.476562 1.953125 -3.9375 1.953125 -3.21875 Z M 1.953125 -3.21875 "/></g></g></g><g fill="#042698" fill-opacity="1"><g transform="translate(73.646425, 45.12125)"><g><path d="M 6.03125 -6.421875 L 6.03125 -2.265625 C 6.03125 -1.796875 5.925781 -1.378906 5.71875 -1.015625 C 5.507812 -0.660156 5.203125 -0.382812 4.796875 -0.1875 C 4.398438 0 3.925781 0.09375 3.375 0.09375 C 2.550781 0.09375 1.910156 -0.117188 1.453125 -0.546875 C 0.992188 -0.972656 0.765625 -1.550781 0.765625 -2.28125 L 0.765625 -6.421875 L 2.125 -6.421875 L 2.125 -2.484375 C 2.125 -1.992188 2.222656 -1.632812 2.421875 -1.40625 C 2.617188 -1.175781 2.945312 -1.0625 3.40625 -1.0625 C 3.851562 -1.0625 4.175781 -1.175781 4.375 -1.40625 C 4.582031 -1.632812 4.6875 -2 4.6875 -2.5 L 4.6875 -6.421875 Z M 6.03125 -6.421875 "/></g></g></g><g fill="#042698" fill-opacity="1"><g transform="translate(81.1916, 45.12125)"><g><path d="M 3.28125 0 L 1.921875 0 L 1.921875 -5.296875 L 0.1875 -5.296875 L 0.1875 -6.421875 L 5.03125 -6.421875 L 5.03125 -5.296875 L 3.28125 -5.296875 Z M 3.28125 0 "/></g></g></g><g fill="#042698" fill-opacity="1"><g transform="translate(87.146965, 45.12125)"><g/></g></g><g fill="#042698" fill-opacity="1"><g transform="translate(90.230135, 45.12125)"><g><path d="M 4.734375 0 L 4.28125 -1.53125 L 1.9375 -1.53125 L 1.46875 0 L 0 0 L 2.265625 -6.453125 L 3.9375 -6.453125 L 6.203125 0 Z M 3.953125 -2.671875 C 3.523438 -4.054688 3.28125 -4.835938 3.21875 -5.015625 C 3.164062 -5.203125 3.128906 -5.347656 3.109375 -5.453125 C 3.015625 -5.078125 2.738281 -4.148438 2.28125 -2.671875 Z M 3.140625 -6.9375 C 2.953125 -7.0625 2.679688 -7.269531 2.328125 -7.5625 C 1.972656 -7.851562 1.691406 -8.09375 1.484375 -8.28125 L 1.484375 -8.375 L 3 -8.375 C 3.175781 -8.082031 3.519531 -7.644531 4.03125 -7.0625 L 4.03125 -6.9375 Z M 3.140625 -6.9375 "/></g></g></g><g fill="#042698" fill-opacity="1"><g transform="translate(97.182428, 45.12125)"><g/></g></g><g fill="#042698" fill-opacity="1"><g transform="translate(100.265597, 45.12125)"><g><path d="M 2.171875 -3.40625 L 2.625 -3.40625 C 3.039062 -3.40625 3.351562 -3.484375 3.5625 -3.640625 C 3.769531 -3.804688 3.875 -4.050781 3.875 -4.375 C 3.875 -4.695312 3.785156 -4.929688 3.609375 -5.078125 C 3.429688 -5.234375 3.160156 -5.3125 2.796875 -5.3125 L 2.171875 -5.3125 Z M 5.25 -4.421875 C 5.25 -3.734375 5.03125 -3.203125 4.59375 -2.828125 C 4.164062 -2.460938 3.550781 -2.28125 2.75 -2.28125 L 2.171875 -2.28125 L 2.171875 0 L 0.8125 0 L 0.8125 -6.421875 L 2.859375 -6.421875 C 3.640625 -6.421875 4.234375 -6.253906 4.640625 -5.921875 C 5.046875 -5.585938 5.25 -5.085938 5.25 -4.421875 Z M 5.25 -4.421875 "/></g></g></g><g fill="#042698" fill-opacity="1"><g transform="translate(106.660137, 45.12125)"><g><path d="M 6.640625 -3.21875 C 6.640625 -2.15625 6.375 -1.335938 5.84375 -0.765625 C 5.320312 -0.191406 4.566406 0.09375 3.578125 0.09375 C 2.597656 0.09375 1.84375 -0.191406 1.3125 -0.765625 C 0.78125 -1.335938 0.515625 -2.160156 0.515625 -3.234375 C 0.515625 -4.296875 0.78125 -5.109375 1.3125 -5.671875 C 1.84375 -6.242188 2.601562 -6.53125 3.59375 -6.53125 C 4.582031 -6.53125 5.335938 -6.242188 5.859375 -5.671875 C 6.378906 -5.109375 6.640625 -4.289062 6.640625 -3.21875 Z M 1.953125 -3.21875 C 1.953125 -2.5 2.085938 -1.957031 2.359375 -1.59375 C 2.628906 -1.238281 3.035156 -1.0625 3.578125 -1.0625 C 4.671875 -1.0625 5.21875 -1.78125 5.21875 -3.21875 C 5.21875 -4.664062 4.675781 -5.390625 3.59375 -5.390625 C 3.050781 -5.390625 2.640625 -5.207031 2.359375 -4.84375 C 2.085938 -4.476562 1.953125 -3.9375 1.953125 -3.21875 Z M 1.953125 -3.21875 "/></g></g></g><g fill="#042698" fill-opacity="1"><g transform="translate(114.565434, 45.12125)"><g><path d="M 2.171875 -3.578125 L 2.609375 -3.578125 C 3.035156 -3.578125 3.351562 -3.644531 3.5625 -3.78125 C 3.769531 -3.925781 3.875 -4.15625 3.875 -4.46875 C 3.875 -4.769531 3.769531 -4.984375 3.5625 -5.109375 C 3.351562 -5.242188 3.023438 -5.3125 2.578125 -5.3125 L 2.171875 -5.3125 Z M 2.171875 -2.46875 L 2.171875 0 L 0.8125 0 L 0.8125 -6.421875 L 2.6875 -6.421875 C 3.550781 -6.421875 4.191406 -6.257812 4.609375 -5.9375 C 5.035156 -5.625 5.25 -5.144531 5.25 -4.5 C 5.25 -4.125 5.144531 -3.785156 4.9375 -3.484375 C 4.726562 -3.191406 4.429688 -2.960938 4.046875 -2.796875 C 5.015625 -1.359375 5.644531 -0.425781 5.9375 0 L 4.4375 0 L 2.890625 -2.46875 Z M 2.171875 -2.46875 "/></g></g></g><g fill="#042698" fill-opacity="1"><g transform="translate(121.249828, 45.12125)"><g><path d="M 3.28125 0 L 1.921875 0 L 1.921875 -5.296875 L 0.1875 -5.296875 L 0.1875 -6.421875 L 5.03125 -6.421875 L 5.03125 -5.296875 L 3.28125 -5.296875 Z M 3.28125 0 "/></g></g></g><g fill="#042698" fill-opacity="1"><g transform="translate(127.205193, 45.12125)"><g><path d="M 4.515625 0 L 0.8125 0 L 0.8125 -6.421875 L 4.515625 -6.421875 L 4.515625 -5.3125 L 2.171875 -5.3125 L 2.171875 -3.890625 L 4.34375 -3.890625 L 4.34375 -2.78125 L 2.171875 -2.78125 L 2.171875 -1.125 L 4.515625 -1.125 Z M 1.859375 -6.9375 L 1.859375 -7.0625 C 2.367188 -7.644531 2.710938 -8.082031 2.890625 -8.375 L 4.40625 -8.375 L 4.40625 -8.28125 C 4.25 -8.132812 3.984375 -7.910156 3.609375 -7.609375 C 3.242188 -7.304688 2.957031 -7.082031 2.75 -6.9375 Z M 1.859375 -6.9375 "/></g></g></g><g fill="#042698" fill-opacity="1"><g transform="translate(132.989284, 45.12125)"><g><path d="M 4.515625 0 L 0.8125 0 L 0.8125 -6.421875 L 4.515625 -6.421875 L 4.515625 -5.3125 L 2.171875 -5.3125 L 2.171875 -3.890625 L 4.34375 -3.890625 L 4.34375 -2.78125 L 2.171875 -2.78125 L 2.171875 -1.125 L 4.515625 -1.125 Z M 4.515625 0 "/></g></g></g><g fill="#042698" fill-opacity="1"><g transform="translate(138.773374, 45.12125)"><g/></g></g><g fill="#042698" fill-opacity="1"><g transform="translate(141.856544, 45.12125)"><g><path d="M 6.140625 -3.28125 C 6.140625 -2.21875 5.835938 -1.40625 5.234375 -0.84375 C 4.628906 -0.28125 3.757812 0 2.625 0 L 0.8125 0 L 0.8125 -6.421875 L 2.828125 -6.421875 C 3.878906 -6.421875 4.691406 -6.144531 5.265625 -5.59375 C 5.847656 -5.039062 6.140625 -4.269531 6.140625 -3.28125 Z M 4.71875 -3.234375 C 4.71875 -4.617188 4.109375 -5.3125 2.890625 -5.3125 L 2.171875 -5.3125 L 2.171875 -1.125 L 2.75 -1.125 C 4.0625 -1.125 4.71875 -1.828125 4.71875 -3.234375 Z M 4.71875 -3.234375 "/></g></g></g><g fill="#042698" fill-opacity="1"><g transform="translate(149.261178, 45.12125)"><g><path d="M 4.515625 0 L 0.8125 0 L 0.8125 -6.421875 L 4.515625 -6.421875 L 4.515625 -5.3125 L 2.171875 -5.3125 L 2.171875 -3.890625 L 4.34375 -3.890625 L 4.34375 -2.78125 L 2.171875 -2.78125 L 2.171875 -1.125 L 4.515625 -1.125 Z M 4.515625 0 "/></g></g></g><g fill="#042698" fill-opacity="1"><g transform="translate(155.045268, 45.12125)"><g/></g></g><g fill="#042698" fill-opacity="1"><g transform="translate(158.128438, 45.12125)"><g><path d="M 2.171875 -3.40625 L 2.625 -3.40625 C 3.039062 -3.40625 3.351562 -3.484375 3.5625 -3.640625 C 3.769531 -3.804688 3.875 -4.050781 3.875 -4.375 C 3.875 -4.695312 3.785156 -4.929688 3.609375 -5.078125 C 3.429688 -5.234375 3.160156 -5.3125 2.796875 -5.3125 L 2.171875 -5.3125 Z M 5.25 -4.421875 C 5.25 -3.734375 5.03125 -3.203125 4.59375 -2.828125 C 4.164062 -2.460938 3.550781 -2.28125 2.75 -2.28125 L 2.171875 -2.28125 L 2.171875 0 L 0.8125 0 L 0.8125 -6.421875 L 2.859375 -6.421875 C 3.640625 -6.421875 4.234375 -6.253906 4.640625 -5.921875 C 5.046875 -5.585938 5.25 -5.085938 5.25 -4.421875 Z M 5.25 -4.421875 "/></g></g></g><g fill="#042698" fill-opacity="1"><g transform="translate(164.522983, 45.12125)"><g><path d="M 4.734375 0 L 4.28125 -1.53125 L 1.9375 -1.53125 L 1.46875 0 L 0 0 L 2.265625 -6.453125 L 3.9375 -6.453125 L 6.203125 0 Z M 3.953125 -2.671875 C 3.523438 -4.054688 3.28125 -4.835938 3.21875 -5.015625 C 3.164062 -5.203125 3.128906 -5.347656 3.109375 -5.453125 C 3.015625 -5.078125 2.738281 -4.148438 2.28125 -2.671875 Z M 3.953125 -2.671875 "/></g></g></g><g fill="#042698" fill-opacity="1"><g transform="translate(171.47528, 45.12125)"><g><path d="M 4.59375 -1.78125 C 4.59375 -1.207031 4.382812 -0.75 3.96875 -0.40625 C 3.550781 -0.0703125 2.972656 0.09375 2.234375 0.09375 C 1.546875 0.09375 0.9375 -0.0351562 0.40625 -0.296875 L 0.40625 -1.5625 C 0.84375 -1.375 1.210938 -1.238281 1.515625 -1.15625 C 1.816406 -1.070312 2.09375 -1.03125 2.34375 -1.03125 C 2.632812 -1.03125 2.859375 -1.085938 3.015625 -1.203125 C 3.179688 -1.316406 3.265625 -1.488281 3.265625 -1.71875 C 3.265625 -1.84375 3.226562 -1.953125 3.15625 -2.046875 C 3.082031 -2.148438 2.976562 -2.242188 2.84375 -2.328125 C 2.707031 -2.421875 2.429688 -2.566406 2.015625 -2.765625 C 1.617188 -2.953125 1.320312 -3.128906 1.125 -3.296875 C 0.9375 -3.472656 0.78125 -3.671875 0.65625 -3.890625 C 0.539062 -4.117188 0.484375 -4.382812 0.484375 -4.6875 C 0.484375 -5.257812 0.675781 -5.707031 1.0625 -6.03125 C 1.445312 -6.351562 1.976562 -6.515625 2.65625 -6.515625 C 3 -6.515625 3.320312 -6.472656 3.625 -6.390625 C 3.925781 -6.316406 4.242188 -6.207031 4.578125 -6.0625 L 4.125 -5 C 3.78125 -5.144531 3.492188 -5.242188 3.265625 -5.296875 C 3.046875 -5.359375 2.832031 -5.390625 2.625 -5.390625 C 2.363281 -5.390625 2.160156 -5.328125 2.015625 -5.203125 C 1.878906 -5.078125 1.8125 -4.921875 1.8125 -4.734375 C 1.8125 -4.609375 1.835938 -4.5 1.890625 -4.40625 C 1.953125 -4.320312 2.039062 -4.238281 2.15625 -4.15625 C 2.28125 -4.070312 2.570312 -3.921875 3.03125 -3.703125 C 3.632812 -3.421875 4.046875 -3.132812 4.265625 -2.84375 C 4.484375 -2.550781 4.59375 -2.195312 4.59375 -1.78125 Z M 4.59375 -1.78125 "/></g></g></g><g fill="#042698" fill-opacity="1"><g transform="translate(177.175925, 45.12125)"><g><path d="M 4.59375 -1.78125 C 4.59375 -1.207031 4.382812 -0.75 3.96875 -0.40625 C 3.550781 -0.0703125 2.972656 0.09375 2.234375 0.09375 C 1.546875 0.09375 0.9375 -0.0351562 0.40625 -0.296875 L 0.40625 -1.5625 C 0.84375 -1.375 1.210938 -1.238281 1.515625 -1.15625 C 1.816406 -1.070312 2.09375 -1.03125 2.34375 -1.03125 C 2.632812 -1.03125 2.859375 -1.085938 3.015625 -1.203125 C 3.179688 -1.316406 3.265625 -1.488281 3.265625 -1.71875 C 3.265625 -1.84375 3.226562 -1.953125 3.15625 -2.046875 C 3.082031 -2.148438 2.976562 -2.242188 2.84375 -2.328125 C 2.707031 -2.421875 2.429688 -2.566406 2.015625 -2.765625 C 1.617188 -2.953125 1.320312 -3.128906 1.125 -3.296875 C 0.9375 -3.472656 0.78125 -3.671875 0.65625 -3.890625 C 0.539062 -4.117188 0.484375 -4.382812 0.484375 -4.6875 C 0.484375 -5.257812 0.675781 -5.707031 1.0625 -6.03125 C 1.445312 -6.351562 1.976562 -6.515625 2.65625 -6.515625 C 3 -6.515625 3.320312 -6.472656 3.625 -6.390625 C 3.925781 -6.316406 4.242188 -6.207031 4.578125 -6.0625 L 4.125 -5 C 3.78125 -5.144531 3.492188 -5.242188 3.265625 -5.296875 C 3.046875 -5.359375 2.832031 -5.390625 2.625 -5.390625 C 2.363281 -5.390625 2.160156 -5.328125 2.015625 -5.203125 C 1.878906 -5.078125 1.8125 -4.921875 1.8125 -4.734375 C 1.8125 -4.609375 1.835938 -4.5 1.890625 -4.40625 C 1.953125 -4.320312 2.039062 -4.238281 2.15625 -4.15625 C 2.28125 -4.070312 2.570312 -3.921875 3.03125 -3.703125 C 3.632812 -3.421875 4.046875 -3.132812 4.265625 -2.84375 C 4.484375 -2.550781 4.59375 -2.195312 4.59375 -1.78125 Z M 4.59375 -1.78125 "/></g></g></g><g fill="#369694" fill-opacity="1"><g transform="translate(77.030005, 30.778726)"><g><path d="M 5.203125 -18.71875 L 5.375 -18.4375 C 4.945312 -16.75 4.195312 -14.703125 3.125 -12.296875 L 0.3125 -12.296875 C 0.90625 -14.828125 1.332031 -16.96875 1.59375 -18.71875 Z M 5.203125 -18.71875 "/></g></g></g><g fill="#369694" fill-opacity="1"><g transform="translate(91.657143, 30.778726)"><g><path d="M 6.328125 -9.90625 L 7.625 -9.90625 C 8.84375 -9.90625 9.753906 -10.144531 10.359375 -10.625 C 10.972656 -11.113281 11.28125 -11.816406 11.28125 -12.734375 C 11.28125 -13.671875 11.023438 -14.359375 10.515625 -14.796875 C 10.003906 -15.242188 9.207031 -15.46875 8.125 -15.46875 L 6.328125 -15.46875 Z M 15.28125 -12.875 C 15.28125 -10.863281 14.648438 -9.320312 13.390625 -8.25 C 12.140625 -7.1875 10.351562 -6.65625 8.03125 -6.65625 L 6.328125 -6.65625 L 6.328125 0 L 2.359375 0 L 2.359375 -18.71875 L 8.328125 -18.71875 C 10.597656 -18.71875 12.320312 -18.226562 13.5 -17.25 C 14.6875 -16.269531 15.28125 -14.8125 15.28125 -12.875 Z M 15.28125 -12.875 "/></g></g></g><g fill="#369694" fill-opacity="1"><g transform="translate(117.064673, 30.778726)"><g><path d="M 13.8125 0 L 12.453125 -4.453125 L 5.640625 -4.453125 L 4.28125 0 L 0 0 L 6.609375 -18.796875 L 11.453125 -18.796875 L 18.09375 0 Z M 11.515625 -7.78125 C 10.253906 -11.820312 9.546875 -14.101562 9.390625 -14.625 C 9.234375 -15.15625 9.117188 -15.578125 9.046875 -15.890625 C 8.765625 -14.796875 7.957031 -12.09375 6.625 -7.78125 Z M 11.515625 -7.78125 "/></g></g></g><g fill="#369694" fill-opacity="1"><g transform="translate(144.098224, 30.778726)"><g><path d="M 13.40625 -5.203125 C 13.40625 -3.503906 12.796875 -2.171875 11.578125 -1.203125 C 10.359375 -0.234375 8.664062 0.25 6.5 0.25 C 4.5 0.25 2.734375 -0.125 1.203125 -0.875 L 1.203125 -4.5625 C 2.460938 -4 3.53125 -3.597656 4.40625 -3.359375 C 5.28125 -3.128906 6.082031 -3.015625 6.8125 -3.015625 C 7.675781 -3.015625 8.34375 -3.179688 8.8125 -3.515625 C 9.28125 -3.847656 9.515625 -4.34375 9.515625 -5 C 9.515625 -5.375 9.410156 -5.703125 9.203125 -5.984375 C 8.992188 -6.265625 8.691406 -6.535156 8.296875 -6.796875 C 7.898438 -7.066406 7.09375 -7.492188 5.875 -8.078125 C 4.726562 -8.617188 3.867188 -9.132812 3.296875 -9.625 C 2.722656 -10.125 2.265625 -10.703125 1.921875 -11.359375 C 1.585938 -12.015625 1.421875 -12.78125 1.421875 -13.65625 C 1.421875 -15.3125 1.976562 -16.613281 3.09375 -17.5625 C 4.21875 -18.507812 5.773438 -18.984375 7.765625 -18.984375 C 8.734375 -18.984375 9.660156 -18.867188 10.546875 -18.640625 C 11.429688 -18.410156 12.351562 -18.085938 13.3125 -17.671875 L 12.03125 -14.578125 C 11.03125 -14.992188 10.203125 -15.28125 9.546875 -15.4375 C 8.898438 -15.601562 8.257812 -15.6875 7.625 -15.6875 C 6.875 -15.6875 6.296875 -15.507812 5.890625 -15.15625 C 5.492188 -14.8125 5.296875 -14.351562 5.296875 -13.78125 C 5.296875 -13.4375 5.375 -13.132812 5.53125 -12.875 C 5.695312 -12.613281 5.957031 -12.359375 6.3125 -12.109375 C 6.664062 -11.867188 7.503906 -11.4375 8.828125 -10.8125 C 10.578125 -9.96875 11.773438 -9.125 12.421875 -8.28125 C 13.078125 -7.445312 13.40625 -6.421875 13.40625 -5.203125 Z M 13.40625 -5.203125 "/></g></g></g><g fill="#369694" fill-opacity="1"><g transform="translate(167.48283, 30.778726)"><g><path d="M 13.40625 -5.203125 C 13.40625 -3.503906 12.796875 -2.171875 11.578125 -1.203125 C 10.359375 -0.234375 8.664062 0.25 6.5 0.25 C 4.5 0.25 2.734375 -0.125 1.203125 -0.875 L 1.203125 -4.5625 C 2.460938 -4 3.53125 -3.597656 4.40625 -3.359375 C 5.28125 -3.128906 6.082031 -3.015625 6.8125 -3.015625 C 7.675781 -3.015625 8.34375 -3.179688 8.8125 -3.515625 C 9.28125 -3.847656 9.515625 -4.34375 9.515625 -5 C 9.515625 -5.375 9.410156 -5.703125 9.203125 -5.984375 C 8.992188 -6.265625 8.691406 -6.535156 8.296875 -6.796875 C 7.898438 -7.066406 7.09375 -7.492188 5.875 -8.078125 C 4.726562 -8.617188 3.867188 -9.132812 3.296875 -9.625 C 2.722656 -10.125 2.265625 -10.703125 1.921875 -11.359375 C 1.585938 -12.015625 1.421875 -12.78125 1.421875 -13.65625 C 1.421875 -15.3125 1.976562 -16.613281 3.09375 -17.5625 C 4.21875 -18.507812 5.773438 -18.984375 7.765625 -18.984375 C 8.734375 -18.984375 9.660156 -18.867188 10.546875 -18.640625 C 11.429688 -18.410156 12.351562 -18.085938 13.3125 -17.671875 L 12.03125 -14.578125 C 11.03125 -14.992188 10.203125 -15.28125 9.546875 -15.4375 C 8.898438 -15.601562 8.257812 -15.6875 7.625 -15.6875 C 6.875 -15.6875 6.296875 -15.507812 5.890625 -15.15625 C 5.492188 -14.8125 5.296875 -14.351562 5.296875 -13.78125 C 5.296875 -13.4375 5.375 -13.132812 5.53125 -12.875 C 5.695312 -12.613281 5.957031 -12.359375 6.3125 -12.109375 C 6.664062 -11.867188 7.503906 -11.4375 8.828125 -10.8125 C 10.578125 -9.96875 11.773438 -9.125 12.421875 -8.28125 C 13.078125 -7.445312 13.40625 -6.421875 13.40625 -5.203125 Z M 13.40625 -5.203125 "/></g></g></g><g clip-path="url(#c63d178cb9)"><path fill="#f4b942" d="M 65.148438 10.59375 C 61.359375 10.59375 58.289062 13.664062 58.289062 17.449219 C 58.289062 21.234375 65.148438 31.160156 65.148438 31.160156 C 65.148438 31.160156 72.003906 21.234375 72.003906 17.449219 C 72.003906 13.664062 68.933594 10.59375 65.148438 10.59375 Z M 65.148438 20.695312 C 63.152344 20.695312 61.539062 19.082031 61.539062 17.085938 C 61.539062 15.09375 63.152344 13.480469 65.148438 13.480469 C 67.140625 13.480469 68.753906 15.09375 68.753906 17.085938 C 68.753906 19.082031 67.140625 20.695312 65.148438 20.695312 Z M 65.148438 20.695312 " fill-opacity="1" fill-rule="nonzero"/></g><g clip-path="url(#1439ee3c26)"><g clip-path="url(#8c8723f77a)"><path fill="#369694" d="M 62.808594 14.625 L 67.863281 14.625 L 67.863281 19.683594 L 62.808594 19.683594 Z M 62.808594 14.625 " fill-opacity="1" fill-rule="nonzero"/></g></g><g clip-path="url(#5999013bc5)"><path fill="#4059ad" d="M 24.976562 48.804688 C 25.296875 48.804688 25.621094 48.875 25.941406 49.054688 C 26.308594 49.257812 26.617188 49.542969 26.917969 49.816406 C 27.0625 49.945312 27.214844 50.082031 27.367188 50.207031 C 27.980469 50.707031 29 51.15625 29.957031 51.351562 C 31.097656 51.582031 32.039062 51.445312 32.613281 50.964844 C 33.066406 50.582031 33.097656 49.976562 33.125 49.332031 C 33.152344 48.824219 33.175781 48.300781 33.414062 47.851562 C 34.078125 46.613281 35.167969 45.773438 36.328125 45.605469 C 37.273438 45.46875 38.222656 45.660156 39.027344 45.867188 C 39.851562 46.078125 40.875 46.339844 41.75 46.773438 C 41.964844 46.878906 42.164062 47 42.355469 47.113281 C 42.804688 47.386719 43.234375 47.640625 43.792969 47.675781 C 45.261719 47.757812 46.511719 46.601562 47.519531 45.671875 C 47.679688 45.523438 47.917969 45.34375 48.195312 45.132812 C 49.082031 44.460938 50.417969 43.441406 50.234375 42.628906 C 50.136719 42.195312 49.796875 42.195312 49.199219 42.230469 C 48.8125 42.25 48.414062 42.273438 48.09375 42.089844 C 47.484375 41.738281 47.113281 41.027344 47.171875 40.324219 C 47.1875 40.152344 47.226562 39.984375 47.265625 39.820312 C 47.320312 39.578125 47.371094 39.351562 47.34375 39.128906 C 47.308594 38.847656 47.144531 38.597656 46.976562 38.335938 C 46.949219 38.292969 46.921875 38.253906 46.894531 38.214844 C 46.621094 37.777344 46.523438 37.4375 46.597656 37.148438 C 46.691406 36.785156 47.023438 36.601562 47.34375 36.421875 C 47.773438 36.183594 48.144531 35.976562 48.066406 35.40625 C 48.027344 35.109375 47.820312 34.941406 47.578125 34.742188 C 47.367188 34.566406 47.144531 34.386719 47.035156 34.097656 C 46.871094 33.667969 47.199219 33.214844 47.351562 33.039062 C 47.410156 32.96875 47.464844 32.914062 47.507812 32.871094 C 47.53125 32.855469 47.539062 32.824219 47.527344 32.800781 C 47.289062 32.058594 46.957031 31.351562 46.542969 30.695312 C 46.285156 30.289062 46.121094 30.203125 46.023438 30.203125 C 46.023438 30.203125 46.023438 30.203125 46.019531 30.203125 C 45.839844 30.203125 45.640625 30.5 45.441406 30.789062 C 45.332031 30.953125 45.214844 31.125 45.085938 31.273438 C 44.8125 31.582031 44.457031 31.929688 44.132812 31.84375 C 43.941406 31.792969 43.8125 31.609375 43.75 31.296875 C 43.660156 30.859375 43.90625 30.4375 44.066406 30.160156 C 44.171875 29.980469 44.273438 29.804688 44.375 29.625 C 45.066406 28.429688 45.777344 27.195312 46.601562 26.054688 C 46.710938 25.902344 46.820312 25.722656 46.929688 25.53125 C 47.242188 25.003906 47.59375 24.40625 48.179688 24.191406 C 48.410156 24.105469 48.640625 24.113281 48.863281 24.117188 C 49.230469 24.125 49.496094 24.132812 49.699219 23.777344 C 49.914062 23.402344 49.878906 22.917969 49.84375 22.453125 L 49.839844 22.410156 C 49.765625 21.4375 49.835938 20.628906 50.0625 19.867188 C 50.179688 19.472656 50.335938 19.085938 50.546875 18.691406 C 50.597656 18.59375 50.664062 18.480469 50.734375 18.359375 C 51.175781 17.578125 51.847656 16.398438 51.230469 15.796875 C 50.9375 15.511719 50.429688 15.484375 49.941406 15.453125 C 49.730469 15.441406 49.527344 15.429688 49.347656 15.394531 C 48.550781 15.253906 47.800781 14.980469 47.113281 14.582031 C 46.851562 14.433594 46.597656 14.265625 46.351562 14.101562 C 45.90625 13.804688 45.484375 13.523438 45.011719 13.335938 C 44.492188 13.125 43.941406 13.042969 43.355469 12.953125 C 43.046875 12.90625 42.722656 12.855469 42.40625 12.785156 C 41.683594 12.625 40.964844 11.417969 40.417969 10.386719 C 40.203125 9.984375 39.710938 9.808594 39.296875 9.988281 C 38.910156 10.15625 38.503906 10.261719 38.253906 10.261719 C 38.25 10.261719 38.25 10.261719 38.25 10.261719 C 37.609375 10.261719 37.46875 9.953125 37.324219 9.625 C 37.277344 9.519531 37.230469 9.410156 37.160156 9.296875 C 36.4375 8.121094 35.210938 7.3125 34.308594 6.839844 C 33.992188 6.675781 33.648438 6.550781 33.285156 6.421875 C 32.5625 6.164062 31.816406 5.898438 31.300781 5.277344 C 31.140625 5.085938 31.027344 4.851562 30.972656 4.613281 C 30.898438 4.28125 30.59375 4.066406 30.261719 4.109375 C 29.261719 4.246094 28.199219 4.476562 27.886719 5.1875 C 27.789062 5.414062 27.808594 5.691406 27.828125 5.957031 L 27.828125 5.976562 C 27.898438 7.007812 27.902344 8.210938 27.40625 9.265625 C 26.992188 10.148438 25.84375 10.558594 24.734375 10.957031 C 23.761719 11.304688 22.84375 11.632812 22.582031 12.21875 C 22.46875 12.472656 22.488281 12.769531 22.632812 13.125 C 22.773438 13.460938 22.625 13.847656 22.296875 14.003906 C 21.71875 14.277344 21.082031 14.410156 20.449219 14.410156 C 19.304688 14.410156 18.164062 13.980469 17.371094 13.179688 C 17.3125 13.121094 17.25 13.054688 17.1875 12.988281 C 16.769531 12.546875 16.25 11.996094 15.703125 12.25 C 15.1875 12.488281 15.160156 13.316406 15.335938 13.800781 C 15.464844 14.148438 15.667969 14.457031 15.886719 14.785156 C 16.050781 15.039062 16.226562 15.300781 16.359375 15.582031 C 16.863281 16.632812 16.507812 17.265625 16.121094 17.609375 C 15.828125 17.871094 15.414062 18.066406 14.882812 18.195312 C 14.425781 18.304688 13.882812 18.359375 13.316406 18.355469 C 12.21875 18.34375 11.152344 18.113281 10.597656 17.761719 C 10.515625 17.710938 10.433594 17.65625 10.355469 17.605469 C 10.015625 17.382812 9.699219 17.167969 9.339844 17.15625 C 8.925781 17.136719 8.539062 17.390625 8.164062 17.636719 C 8.105469 17.675781 8.046875 17.710938 7.988281 17.75 C 7.53125 18.039062 6.867188 18.039062 6.160156 18.042969 C 5.109375 18.042969 4.121094 18.042969 3.929688 18.996094 C 3.890625 19.207031 3.972656 19.4375 4.148438 19.597656 C 4.25 19.691406 4.453125 19.710938 4.652344 19.730469 C 4.769531 19.742188 4.886719 19.753906 4.992188 19.78125 C 5.019531 19.785156 5.050781 19.792969 5.078125 19.800781 C 5.285156 19.847656 5.566406 19.914062 5.707031 20.117188 C 5.789062 20.242188 5.78125 20.355469 5.761719 20.425781 C 5.683594 20.683594 5.324219 20.832031 5.0625 20.941406 C 4.996094 20.96875 4.929688 21 4.902344 21.015625 C 4.570312 21.214844 4.558594 21.351562 4.585938 21.449219 C 4.625 21.609375 4.84375 21.859375 5.65625 22.152344 C 6.257812 22.371094 7.007812 22.546875 7.609375 22.6875 C 7.828125 22.738281 8.035156 22.785156 8.210938 22.832031 C 9.1875 23.078125 10.316406 23.40625 11.316406 23.949219 C 12.40625 24.539062 13.183594 25.300781 13.6875 26.269531 C 13.910156 26.691406 13.957031 27.152344 14 27.597656 C 14.050781 28.078125 14.097656 28.53125 14.347656 28.894531 L 14.351562 28.894531 C 14.667969 29.355469 15.144531 29.675781 15.648438 29.996094 C 18.410156 31.746094 17.75 36.578125 17.316406 39.78125 C 17.261719 40.1875 17.207031 40.570312 17.167969 40.910156 C 17.140625 41.15625 17.113281 41.410156 17.085938 41.652344 C 17 42.484375 16.910156 43.347656 16.695312 44.148438 C 16.449219 45.058594 16.066406 45.796875 15.519531 46.414062 L 15.515625 46.414062 C 15.445312 46.5 15.410156 46.609375 15.425781 46.71875 C 15.441406 46.824219 15.503906 46.917969 15.59375 46.976562 C 16.171875 47.335938 17.039062 47.683594 17.878906 48.019531 C 18.417969 48.234375 18.972656 48.453125 19.457031 48.679688 C 19.597656 48.746094 19.742188 48.816406 19.878906 48.886719 C 20.367188 49.125 20.871094 49.371094 21.398438 49.492188 C 22.050781 49.636719 22.726562 49.402344 23.382812 49.175781 C 23.90625 48.992188 24.441406 48.804688 24.976562 48.804688 Z M 30.980469 51.796875 C 30.640625 51.796875 30.273438 51.757812 29.890625 51.679688 C 28.882812 51.472656 27.808594 50.996094 27.152344 50.464844 C 26.996094 50.335938 26.839844 50.199219 26.691406 50.0625 C 26.394531 49.789062 26.109375 49.53125 25.777344 49.34375 C 25.0625 48.945312 24.300781 49.210938 23.492188 49.488281 C 22.949219 49.679688 22.394531 49.871094 21.824219 49.871094 C 21.660156 49.871094 21.492188 49.855469 21.324219 49.816406 C 20.761719 49.691406 20.238281 49.433594 19.734375 49.1875 C 19.597656 49.121094 19.453125 49.050781 19.3125 48.984375 C 18.839844 48.761719 18.289062 48.542969 17.757812 48.328125 C 16.902344 47.988281 16.019531 47.636719 15.417969 47.261719 C 15.242188 47.152344 15.125 46.972656 15.09375 46.765625 C 15.066406 46.558594 15.128906 46.347656 15.269531 46.191406 C 16.414062 44.90625 16.578125 43.308594 16.753906 41.617188 C 16.78125 41.375 16.804688 41.121094 16.835938 40.871094 C 16.875 40.527344 16.929688 40.140625 16.984375 39.734375 C 17.199219 38.160156 17.464844 36.199219 17.347656 34.414062 C 17.214844 32.347656 16.597656 30.996094 15.46875 30.277344 C 14.9375 29.941406 14.429688 29.597656 14.074219 29.089844 L 14.074219 29.085938 C 13.773438 28.648438 13.71875 28.132812 13.667969 27.632812 C 13.625 27.199219 13.582031 26.789062 13.390625 26.421875 C 12.320312 24.371094 10.113281 23.660156 8.128906 23.15625 C 7.957031 23.109375 7.75 23.0625 7.535156 23.011719 C 5.851562 22.617188 4.445312 22.234375 4.261719 21.535156 C 4.140625 21.082031 4.582031 20.816406 4.730469 20.726562 C 4.777344 20.699219 4.84375 20.671875 4.933594 20.632812 C 5.039062 20.589844 5.171875 20.535156 5.277344 20.472656 C 5.417969 20.390625 5.4375 20.335938 5.4375 20.332031 C 5.441406 20.324219 5.433594 20.3125 5.429688 20.304688 C 5.363281 20.210938 5.15625 20.164062 5.003906 20.125 C 4.972656 20.121094 4.9375 20.113281 4.910156 20.105469 C 4.828125 20.082031 4.726562 20.074219 4.621094 20.0625 C 4.378906 20.039062 4.105469 20.011719 3.921875 19.84375 C 3.660156 19.605469 3.539062 19.257812 3.601562 18.933594 C 3.710938 18.378906 4.035156 18.023438 4.59375 17.851562 C 5.054688 17.707031 5.617188 17.707031 6.160156 17.707031 C 6.816406 17.707031 7.433594 17.707031 7.808594 17.46875 C 7.867188 17.429688 7.925781 17.394531 7.980469 17.355469 C 8.402344 17.082031 8.835938 16.800781 9.351562 16.820312 C 9.804688 16.839844 10.179688 17.085938 10.539062 17.328125 C 10.617188 17.378906 10.695312 17.429688 10.773438 17.480469 C 11.273438 17.792969 12.296875 18.011719 13.320312 18.019531 C 14.476562 18.03125 15.414062 17.789062 15.898438 17.359375 C 16.335938 16.96875 16.390625 16.421875 16.058594 15.726562 C 15.933594 15.464844 15.765625 15.214844 15.605469 14.96875 C 15.390625 14.640625 15.164062 14.300781 15.023438 13.914062 C 14.90625 13.59375 14.871094 13.195312 14.933594 12.847656 C 15.015625 12.417969 15.238281 12.09375 15.566406 11.945312 C 15.90625 11.789062 16.269531 11.824219 16.640625 12.054688 C 16.941406 12.242188 17.199219 12.515625 17.429688 12.757812 C 17.492188 12.824219 17.550781 12.886719 17.609375 12.945312 C 18.746094 14.09375 20.65625 14.410156 22.152344 13.703125 C 22.320312 13.621094 22.394531 13.425781 22.324219 13.253906 C 22.144531 12.8125 22.128906 12.421875 22.277344 12.082031 C 22.59375 11.367188 23.578125 11.011719 24.621094 10.640625 C 25.667969 10.265625 26.75 9.878906 27.105469 9.125 C 27.566406 8.136719 27.5625 6.988281 27.492188 6 L 27.492188 5.980469 C 27.472656 5.6875 27.449219 5.355469 27.582031 5.054688 C 27.957031 4.191406 29.125 3.925781 30.21875 3.777344 C 30.722656 3.710938 31.1875 4.039062 31.300781 4.539062 C 31.339844 4.726562 31.433594 4.910156 31.558594 5.0625 C 32.015625 5.613281 32.6875 5.851562 33.398438 6.105469 C 33.757812 6.234375 34.128906 6.367188 34.464844 6.542969 C 35.402344 7.035156 36.683594 7.878906 37.445312 9.121094 C 37.527344 9.253906 37.582031 9.378906 37.632812 9.488281 C 37.765625 9.789062 37.824219 9.925781 38.25 9.929688 C 38.25 9.929688 38.253906 9.929688 38.253906 9.929688 C 38.453125 9.929688 38.828125 9.828125 39.164062 9.679688 C 39.738281 9.429688 40.417969 9.671875 40.714844 10.230469 C 40.984375 10.746094 41.816406 12.3125 42.480469 12.460938 C 42.785156 12.527344 43.101562 12.574219 43.40625 12.621094 C 43.984375 12.710938 44.578125 12.800781 45.136719 13.023438 C 45.640625 13.226562 46.097656 13.527344 46.535156 13.820312 C 46.777344 13.980469 47.027344 14.148438 47.277344 14.292969 C 47.933594 14.671875 48.648438 14.929688 49.40625 15.066406 C 49.566406 15.09375 49.757812 15.105469 49.960938 15.121094 C 50.484375 15.148438 51.082031 15.1875 51.464844 15.558594 C 51.820312 15.90625 51.902344 16.410156 51.710938 17.0625 C 51.558594 17.585938 51.261719 18.105469 51.023438 18.523438 C 50.957031 18.640625 50.894531 18.753906 50.84375 18.847656 C 50.644531 19.222656 50.492188 19.589844 50.382812 19.960938 L 50.222656 19.914062 L 50.382812 19.960938 C 50.167969 20.683594 50.101562 21.453125 50.171875 22.382812 L 50.175781 22.425781 C 50.214844 22.917969 50.257812 23.476562 49.992188 23.941406 C 49.6875 24.472656 49.246094 24.460938 48.855469 24.453125 C 48.65625 24.449219 48.464844 24.441406 48.292969 24.507812 C 47.820312 24.679688 47.515625 25.199219 47.21875 25.699219 C 47.101562 25.898438 46.992188 26.085938 46.875 26.25 C 46.058594 27.375 45.351562 28.605469 44.664062 29.792969 C 44.5625 29.972656 44.460938 30.148438 44.355469 30.328125 C 44.175781 30.640625 44.019531 30.941406 44.078125 31.230469 C 44.117188 31.425781 44.175781 31.507812 44.21875 31.519531 C 44.257812 31.527344 44.417969 31.527344 44.832031 31.050781 C 44.949219 30.917969 45.058594 30.757812 45.164062 30.601562 C 45.425781 30.222656 45.667969 29.863281 46.03125 29.867188 C 46.296875 29.871094 46.546875 30.078125 46.824219 30.515625 C 47.269531 31.214844 47.621094 32.019531 47.871094 32.8125 C 47.894531 32.878906 47.878906 32.949219 47.832031 33 C 47.652344 33.203125 47.242188 33.699219 47.347656 33.980469 C 47.425781 34.183594 47.601562 34.328125 47.792969 34.484375 C 48.050781 34.695312 48.339844 34.933594 48.398438 35.359375 C 48.503906 36.15625 47.953125 36.464844 47.507812 36.714844 C 47.222656 36.871094 46.980469 37.007812 46.921875 37.230469 C 46.875 37.417969 46.960938 37.6875 47.179688 38.035156 C 47.203125 38.074219 47.230469 38.113281 47.253906 38.152344 C 47.4375 38.4375 47.628906 38.730469 47.675781 39.085938 C 47.710938 39.367188 47.648438 39.636719 47.589844 39.894531 C 47.554688 40.054688 47.519531 40.203125 47.507812 40.351562 C 47.457031 40.921875 47.769531 41.515625 48.261719 41.800781 C 48.492188 41.933594 48.84375 41.914062 49.179688 41.894531 C 49.460938 41.878906 49.753906 41.859375 49.996094 41.929688 C 50.296875 42.019531 50.488281 42.230469 50.5625 42.558594 C 50.792969 43.578125 49.410156 44.628906 48.398438 45.398438 C 48.128906 45.601562 47.898438 45.78125 47.746094 45.917969 C 47.253906 46.371094 46.644531 46.9375 45.980469 47.355469 C 45.210938 47.835938 44.492188 48.050781 43.777344 48.007812 C 43.132812 47.972656 42.648438 47.679688 42.179688 47.402344 C 41.996094 47.289062 41.804688 47.171875 41.601562 47.074219 C 40.757812 46.65625 39.753906 46.398438 38.945312 46.191406 C 38.171875 45.992188 37.261719 45.808594 36.375 45.933594 C 35.320312 46.089844 34.324219 46.863281 33.710938 48.007812 C 33.507812 48.390625 33.484375 48.855469 33.460938 49.351562 C 33.429688 50.035156 33.394531 50.746094 32.828125 51.222656 C 32.476562 51.515625 32.023438 51.699219 31.476562 51.765625 C 31.316406 51.785156 31.152344 51.796875 30.980469 51.796875 " fill-opacity="1" fill-rule="nonzero"/></g><g clip-path="url(#1b9fc57ad6)"><path fill="#f4b942" d="M 38.339844 13.242188 C 37.300781 13.242188 36.453125 14.085938 36.453125 15.128906 C 36.453125 16.167969 38.339844 18.898438 38.339844 18.898438 C 38.339844 18.898438 40.226562 16.167969 40.226562 15.128906 C 40.226562 14.085938 39.382812 13.242188 38.339844 13.242188 Z M 38.339844 16.019531 C 37.792969 16.019531 37.347656 15.574219 37.347656 15.027344 C 37.347656 14.480469 37.792969 14.035156 38.339844 14.035156 C 38.890625 14.035156 39.332031 14.480469 39.332031 15.027344 C 39.332031 15.574219 38.890625 16.019531 38.339844 16.019531 Z M 38.339844 16.019531 " fill-opacity="1" fill-rule="nonzero"/></g><g clip-path="url(#e8a4f68b36)"><path fill="#f4b942" d="M 20.625 21.503906 C 19.585938 21.503906 18.738281 22.347656 18.738281 23.390625 C 18.738281 24.433594 20.625 27.164062 20.625 27.164062 C 20.625 27.164062 22.511719 24.433594 22.511719 23.390625 C 22.511719 22.347656 21.667969 21.503906 20.625 21.503906 Z M 20.625 24.285156 C 20.078125 24.285156 19.632812 23.839844 19.632812 23.289062 C 19.632812 22.742188 20.078125 22.296875 20.625 22.296875 C 21.175781 22.296875 21.617188 22.742188 21.617188 23.289062 C 21.617188 23.839844 21.175781 24.285156 20.625 24.285156 Z M 20.625 24.285156 " fill-opacity="1" fill-rule="nonzero"/></g><g clip-path="url(#9604b77f7a)"><path fill="#f4b942" d="M 36.453125 36.203125 C 35.410156 36.203125 34.566406 37.050781 34.566406 38.089844 C 34.566406 39.132812 36.453125 41.863281 36.453125 41.863281 C 36.453125 41.863281 38.339844 39.132812 38.339844 38.089844 C 38.339844 37.050781 37.492188 36.203125 36.453125 36.203125 Z M 36.453125 38.984375 C 35.902344 38.984375 35.460938 38.539062 35.460938 37.992188 C 35.460938 37.445312 35.902344 37 36.453125 37 C 37 37 37.445312 37.445312 37.445312 37.992188 C 37.445312 38.539062 37 38.984375 36.453125 38.984375 Z M 36.453125 38.984375 " fill-opacity="1" fill-rule="nonzero"/></g></svg>