<svg xmlns="http://www.w3.org/2000/svg" xmlns:xlink="http://www.w3.org/1999/xlink" width="500" zoomAndPan="magnify" viewBox="0 0 375 374.999991" height="500" preserveAspectRatio="xMidYMid meet" version="1.0"><defs><g/><clipPath id="103c2d64b4"><path d="M 187.5 0 C 83.945312 0 0 83.945312 0 187.5 C 0 291.054688 83.945312 375 187.5 375 C 291.054688 375 375 291.054688 375 187.5 C 375 83.945312 291.054688 0 187.5 0 Z M 187.5 0 " clip-rule="nonzero"/></clipPath><clipPath id="5137d0be11"><path d="M 74.488281 28 L 281 28 L 281 233.070312 L 74.488281 233.070312 Z M 74.488281 28 " clip-rule="nonzero"/></clipPath><clipPath id="34a68304b9"><path d="M 215.3125 73.4375 L 231.023438 73.4375 L 231.023438 97.984375 L 215.3125 97.984375 Z M 215.3125 73.4375 " clip-rule="nonzero"/></clipPath><clipPath id="64c90f7e6b"><path d="M 139.554688 111.492188 L 155.261719 111.492188 L 155.261719 136 L 139.554688 136 Z M 139.554688 111.492188 " clip-rule="nonzero"/></clipPath><clipPath id="f06ad07073"><path d="M 207.238281 171.324219 L 222.945312 171.324219 L 222.945312 195.867188 L 207.238281 195.867188 Z M 207.238281 171.324219 " clip-rule="nonzero"/></clipPath><clipPath id="5189575f3b"><path d="M 76.964844 255.554688 L 101.511719 255.554688 L 101.511719 292.863281 L 76.964844 292.863281 Z M 76.964844 255.554688 " clip-rule="nonzero"/></clipPath><clipPath id="6c57b9e71e"><path d="M 81.507812 260.441406 L 96.929688 260.441406 L 96.929688 275.863281 L 81.507812 275.863281 Z M 81.507812 260.441406 " clip-rule="nonzero"/></clipPath><clipPath id="459247e17d"><path d="M 89.21875 260.441406 C 84.960938 260.441406 81.507812 263.890625 81.507812 268.152344 C 81.507812 272.410156 84.960938 275.863281 89.21875 275.863281 C 93.476562 275.863281 96.929688 272.410156 96.929688 268.152344 C 96.929688 263.890625 93.476562 260.441406 89.21875 260.441406 Z M 89.21875 260.441406 " clip-rule="nonzero"/></clipPath><clipPath id="ab453ebc62"><path d="M 81.507812 260.441406 L 96.925781 260.441406 L 96.925781 275.855469 L 81.507812 275.855469 Z M 81.507812 260.441406 " clip-rule="nonzero"/></clipPath><clipPath id="2f3e19e37b"><path d="M 89.214844 260.441406 C 84.957031 260.441406 81.507812 263.890625 81.507812 268.148438 C 81.507812 272.40625 84.957031 275.855469 89.214844 275.855469 C 93.472656 275.855469 96.925781 272.40625 96.925781 268.148438 C 96.925781 263.890625 93.472656 260.441406 89.214844 260.441406 Z M 89.214844 260.441406 " clip-rule="nonzero"/></clipPath></defs><g clip-path="url(#103c2d64b4)"><rect x="-37.5" width="450" fill="#f5f5f5" y="-37.499999" height="449.999989" fill-opacity="1"/></g><g clip-path="url(#5137d0be11)"><path fill="#4059ad" d="M 166.214844 220.738281 C 167.601562 220.738281 168.980469 221.03125 170.347656 221.796875 C 171.917969 222.679688 173.246094 223.886719 174.527344 225.054688 C 175.148438 225.617188 175.789062 226.199219 176.441406 226.730469 C 179.074219 228.867188 183.425781 230.789062 187.523438 231.621094 C 192.402344 232.613281 196.433594 232.027344 198.878906 229.972656 C 200.828125 228.335938 200.949219 225.742188 201.082031 222.996094 C 201.183594 220.824219 201.289062 218.574219 202.316406 216.652344 C 205.152344 211.355469 209.808594 207.761719 214.765625 207.046875 C 218.8125 206.460938 222.875 207.285156 226.316406 208.167969 C 229.835938 209.074219 234.21875 210.199219 237.964844 212.046875 C 238.878906 212.5 239.726562 213.007812 240.546875 213.5 C 242.480469 214.664062 244.304688 215.761719 246.707031 215.898438 C 252.976562 216.257812 258.335938 211.3125 262.640625 207.335938 C 263.328125 206.699219 264.347656 205.925781 265.53125 205.027344 C 269.316406 202.148438 275.039062 197.800781 274.257812 194.324219 C 273.835938 192.464844 272.375 192.460938 269.828125 192.609375 C 268.171875 192.707031 266.460938 192.808594 265.09375 192.019531 C 262.480469 190.507812 260.894531 187.472656 261.15625 184.460938 C 261.21875 183.722656 261.386719 183.003906 261.546875 182.3125 C 261.785156 181.277344 262.011719 180.300781 261.886719 179.347656 C 261.730469 178.15625 261.039062 177.085938 260.308594 175.957031 C 260.195312 175.78125 260.082031 175.609375 259.972656 175.433594 C 258.789062 173.5625 258.382812 172.117188 258.695312 170.878906 C 259.089844 169.332031 260.511719 168.539062 261.890625 167.769531 C 263.722656 166.75 265.304688 165.867188 264.976562 163.429688 C 264.804688 162.160156 263.917969 161.433594 262.894531 160.59375 C 261.976562 159.847656 261.03125 159.070312 260.558594 157.835938 C 259.859375 155.996094 261.273438 154.054688 261.910156 153.304688 C 262.171875 153 262.398438 152.765625 262.59375 152.589844 C 262.683594 152.511719 262.714844 152.390625 262.679688 152.28125 C 261.65625 149.113281 260.238281 146.089844 258.457031 143.277344 C 257.367188 141.550781 256.648438 141.179688 256.242188 141.171875 C 256.238281 141.171875 256.234375 141.171875 256.230469 141.171875 C 255.460938 141.171875 254.59375 142.449219 253.753906 143.683594 C 253.277344 144.386719 252.78125 145.113281 252.226562 145.746094 C 251.058594 147.078125 249.542969 148.554688 248.152344 148.1875 C 247.335938 147.96875 246.78125 147.1875 246.511719 145.859375 C 246.132812 143.992188 247.179688 142.183594 247.871094 140.988281 C 248.3125 140.230469 248.75 139.46875 249.1875 138.707031 C 252.136719 133.59375 255.1875 128.308594 258.71875 123.425781 C 259.1875 122.777344 259.640625 122.007812 260.117188 121.195312 C 261.445312 118.9375 262.949219 116.378906 265.460938 115.464844 C 266.449219 115.105469 267.4375 115.128906 268.390625 115.152344 C 269.957031 115.1875 271.09375 115.214844 271.964844 113.691406 C 272.886719 112.082031 272.726562 110.019531 272.570312 108.027344 L 272.558594 107.847656 C 272.238281 103.679688 272.539062 100.226562 273.507812 96.96875 C 274.011719 95.28125 274.6875 93.636719 275.585938 91.949219 C 275.808594 91.519531 276.085938 91.03125 276.382812 90.515625 C 278.277344 87.179688 281.140625 82.136719 278.503906 79.570312 C 277.25 78.347656 275.085938 78.21875 272.992188 78.09375 C 272.085938 78.039062 271.230469 77.988281 270.453125 77.847656 C 267.054688 77.238281 263.839844 76.066406 260.894531 74.375 C 259.777344 73.730469 258.6875 73.007812 257.636719 72.304688 C 255.734375 71.039062 253.9375 69.84375 251.914062 69.035156 C 249.683594 68.144531 247.328125 67.785156 244.832031 67.402344 C 243.5 67.199219 242.121094 66.988281 240.773438 66.691406 C 237.679688 66.003906 234.601562 60.84375 232.265625 56.425781 C 231.351562 54.695312 229.246094 53.949219 227.46875 54.722656 C 225.820312 55.4375 224.074219 55.898438 223.007812 55.898438 C 223 55.898438 222.996094 55.898438 222.988281 55.898438 C 220.246094 55.882812 219.660156 54.5625 219.039062 53.164062 C 218.839844 52.714844 218.632812 52.25 218.335938 51.765625 C 215.242188 46.730469 209.996094 43.273438 206.140625 41.261719 C 204.785156 40.550781 203.316406 40.027344 201.757812 39.46875 C 198.671875 38.363281 195.480469 37.222656 193.269531 34.566406 C 192.59375 33.753906 192.097656 32.746094 191.871094 31.730469 C 191.550781 30.3125 190.246094 29.386719 188.832031 29.578125 C 184.554688 30.15625 180.003906 31.15625 178.675781 34.195312 C 178.253906 35.15625 178.335938 36.339844 178.414062 37.488281 L 178.417969 37.558594 C 178.71875 41.980469 178.742188 47.109375 176.617188 51.636719 C 174.847656 55.402344 169.9375 57.160156 165.191406 58.859375 C 161.027344 60.347656 157.101562 61.75 155.988281 64.257812 C 155.503906 65.347656 155.574219 66.613281 156.203125 68.132812 C 156.800781 69.574219 156.164062 71.226562 154.753906 71.898438 C 152.285156 73.070312 149.570312 73.636719 146.855469 73.636719 C 141.96875 73.636719 137.09375 71.800781 133.691406 68.375 C 133.441406 68.117188 133.179688 67.84375 132.90625 67.550781 C 131.125 65.664062 128.90625 63.3125 126.570312 64.386719 C 124.359375 65.40625 124.238281 68.957031 124.996094 71.023438 C 125.542969 72.511719 126.417969 73.832031 127.339844 75.234375 C 128.058594 76.320312 128.796875 77.441406 129.375 78.652344 C 131.519531 83.144531 130.003906 85.84375 128.351562 87.320312 C 127.101562 88.433594 125.320312 89.273438 123.054688 89.820312 C 121.09375 90.292969 118.773438 90.527344 116.351562 90.503906 C 111.667969 90.457031 107.101562 89.464844 104.71875 87.96875 C 104.371094 87.753906 104.023438 87.523438 103.6875 87.300781 C 102.246094 86.339844 100.882812 85.433594 99.34375 85.371094 C 97.585938 85.296875 95.925781 86.382812 94.320312 87.429688 C 94.074219 87.589844 93.820312 87.757812 93.570312 87.914062 C 91.617188 89.15625 88.765625 89.160156 85.75 89.160156 C 81.261719 89.164062 77.019531 89.167969 76.214844 93.25 C 76.039062 94.152344 76.390625 95.136719 77.136719 95.816406 C 77.582031 96.21875 78.453125 96.304688 79.300781 96.386719 C 79.792969 96.433594 80.300781 96.484375 80.757812 96.597656 C 80.871094 96.628906 80.996094 96.65625 81.128906 96.6875 C 82.007812 96.894531 83.214844 97.171875 83.804688 98.042969 C 84.164062 98.574219 84.128906 99.054688 84.035156 99.367188 C 83.710938 100.457031 82.171875 101.101562 81.050781 101.570312 C 80.769531 101.6875 80.480469 101.808594 80.363281 101.878906 C 78.953125 102.726562 78.898438 103.324219 79.007812 103.746094 C 79.1875 104.425781 80.125 105.496094 83.59375 106.746094 C 86.171875 107.675781 89.375 108.425781 91.949219 109.027344 C 92.882812 109.246094 93.765625 109.453125 94.523438 109.648438 C 98.6875 110.703125 103.523438 112.101562 107.808594 114.429688 C 112.46875 116.960938 115.785156 120.207031 117.949219 124.351562 C 118.886719 126.148438 119.089844 128.128906 119.285156 130.039062 C 119.496094 132.089844 119.695312 134.027344 120.769531 135.582031 L 120.773438 135.585938 C 122.132812 137.546875 124.175781 138.929688 126.324219 140.289062 C 138.144531 147.769531 135.324219 168.449219 133.460938 182.132812 C 133.222656 183.871094 133 185.511719 132.828125 186.96875 C 132.703125 188.027344 132.589844 189.105469 132.484375 190.148438 C 132.113281 193.707031 131.730469 197.386719 130.804688 200.820312 C 129.761719 204.710938 128.113281 207.878906 125.773438 210.507812 L 125.765625 210.515625 C 125.453125 210.871094 125.3125 211.339844 125.378906 211.808594 C 125.445312 212.269531 125.710938 212.671875 126.101562 212.917969 C 128.570312 214.453125 132.285156 215.9375 135.875 217.371094 C 138.171875 218.289062 140.546875 219.238281 142.613281 220.203125 C 143.222656 220.492188 143.835938 220.792969 144.429688 221.082031 C 146.515625 222.105469 148.671875 223.164062 150.925781 223.671875 C 153.703125 224.296875 156.601562 223.289062 159.40625 222.3125 C 161.648438 221.535156 163.933594 220.738281 166.214844 220.738281 Z M 191.90625 233.527344 C 190.445312 233.527344 188.882812 233.359375 187.242188 233.023438 C 182.929688 232.148438 178.335938 230.113281 175.539062 227.839844 C 174.855469 227.289062 174.199219 226.691406 173.5625 226.113281 C 172.285156 224.949219 171.074219 223.847656 169.648438 223.046875 C 166.589844 221.328125 163.328125 222.464844 159.875 223.664062 C 157.558594 224.472656 155.179688 225.300781 152.75 225.300781 C 152.042969 225.300781 151.328125 225.230469 150.609375 225.066406 C 148.191406 224.523438 145.957031 223.425781 143.796875 222.367188 C 143.210938 222.078125 142.601562 221.78125 142.003906 221.5 C 139.976562 220.550781 137.621094 219.609375 135.34375 218.699219 C 131.695312 217.242188 127.921875 215.734375 125.347656 214.132812 C 124.59375 213.664062 124.089844 212.890625 123.960938 212.011719 C 123.835938 211.125 124.101562 210.230469 124.699219 209.558594 L 124.707031 209.550781 C 129.59375 204.058594 130.304688 197.230469 131.058594 190 C 131.167969 188.953125 131.28125 187.871094 131.40625 186.804688 C 131.578125 185.332031 131.804688 183.683594 132.042969 181.941406 C 132.960938 175.207031 134.101562 166.824219 133.605469 159.191406 C 133.027344 150.347656 130.394531 144.5625 125.558594 141.5 C 123.28125 140.058594 121.113281 138.585938 119.601562 136.410156 L 119.589844 136.390625 C 118.308594 134.535156 118.082031 132.324219 117.863281 130.1875 C 117.671875 128.328125 117.492188 126.570312 116.679688 125.011719 C 112.09375 116.226562 102.65625 113.191406 94.171875 111.035156 C 93.425781 110.847656 92.550781 110.640625 91.625 110.421875 C 84.425781 108.738281 78.40625 107.101562 77.625 104.109375 C 77.113281 102.160156 79.003906 101.027344 79.625 100.652344 C 79.832031 100.53125 80.125 100.40625 80.496094 100.25 C 80.953125 100.058594 81.519531 99.824219 81.972656 99.554688 C 82.578125 99.203125 82.65625 98.984375 82.664062 98.960938 C 82.671875 98.929688 82.640625 98.875 82.617188 98.84375 C 82.34375 98.441406 81.453125 98.234375 80.804688 98.082031 C 80.660156 98.050781 80.527344 98.019531 80.402344 97.984375 C 80.054688 97.898438 79.621094 97.855469 79.160156 97.808594 C 78.132812 97.710938 76.96875 97.597656 76.171875 96.875 C 75.058594 95.859375 74.535156 94.363281 74.808594 92.976562 C 75.277344 90.605469 76.660156 89.089844 79.042969 88.347656 C 81.019531 87.730469 83.425781 87.730469 85.75 87.730469 C 88.550781 87.726562 91.199219 87.726562 92.804688 86.707031 C 93.046875 86.550781 93.296875 86.386719 93.539062 86.230469 C 95.332031 85.058594 97.183594 83.847656 99.402344 83.941406 C 101.339844 84.019531 102.9375 85.082031 104.480469 86.105469 C 104.808594 86.324219 105.148438 86.550781 105.480469 86.757812 C 107.621094 88.097656 111.996094 89.027344 116.367188 89.070312 C 121.3125 89.121094 125.332031 88.09375 127.398438 86.25 C 129.269531 84.582031 129.5 82.230469 128.082031 79.269531 C 127.546875 78.148438 126.835938 77.066406 126.144531 76.023438 C 125.21875 74.617188 124.257812 73.160156 123.652344 71.519531 C 123.148438 70.140625 123.007812 68.4375 123.277344 66.957031 C 123.613281 65.105469 124.570312 63.730469 125.972656 63.085938 C 127.429688 62.414062 128.976562 62.574219 130.574219 63.558594 C 131.855469 64.351562 132.96875 65.53125 133.949219 66.570312 C 134.214844 66.855469 134.46875 67.125 134.710938 67.363281 C 139.582031 72.277344 147.753906 73.636719 154.140625 70.605469 C 154.859375 70.261719 155.183594 69.417969 154.878906 68.679688 C 154.105469 66.804688 154.039062 65.121094 154.679688 63.675781 C 156.039062 60.609375 160.25 59.101562 164.707031 57.507812 C 169.179688 55.910156 173.804688 54.253906 175.320312 51.027344 C 177.308594 46.796875 177.28125 41.894531 176.988281 37.65625 L 176.984375 37.585938 C 176.898438 36.328125 176.800781 34.90625 177.363281 33.621094 C 178.976562 29.929688 183.96875 28.789062 188.640625 28.160156 C 190.796875 27.871094 192.785156 29.269531 193.265625 31.417969 C 193.445312 32.214844 193.839844 33.007812 194.371094 33.648438 C 196.328125 36.007812 199.199219 37.035156 202.238281 38.121094 C 203.773438 38.667969 205.359375 39.238281 206.804688 39.992188 C 210.820312 42.085938 216.289062 45.703125 219.554688 51.015625 C 219.902344 51.582031 220.136719 52.113281 220.347656 52.582031 C 220.917969 53.871094 221.179688 54.457031 222.996094 54.464844 C 223 54.464844 223.003906 54.464844 223.007812 54.464844 C 223.867188 54.464844 225.460938 54.03125 226.898438 53.40625 C 229.355469 52.339844 232.269531 53.371094 233.53125 55.757812 C 234.695312 57.957031 238.238281 64.660156 241.085938 65.292969 C 242.382812 65.582031 243.738281 65.789062 245.050781 65.988281 C 247.515625 66.363281 250.0625 66.753906 252.445312 67.707031 C 254.609375 68.570312 256.550781 69.863281 258.433594 71.113281 C 259.460938 71.800781 260.53125 72.511719 261.609375 73.132812 C 264.410156 74.746094 267.472656 75.855469 270.703125 76.441406 C 271.398438 76.5625 272.214844 76.613281 273.078125 76.664062 C 275.320312 76.796875 277.867188 76.949219 279.503906 78.542969 C 281.027344 80.027344 281.382812 82.191406 280.566406 84.976562 C 279.90625 87.207031 278.640625 89.433594 277.625 91.222656 C 277.339844 91.730469 277.066406 92.210938 276.847656 92.617188 C 276 94.222656 275.355469 95.78125 274.878906 97.378906 L 274.191406 97.175781 L 274.878906 97.378906 C 273.964844 100.460938 273.679688 103.753906 273.984375 107.734375 L 274 107.914062 C 274.160156 110.023438 274.347656 112.414062 273.207031 114.402344 C 271.910156 116.667969 270.019531 116.621094 268.355469 116.582031 C 267.496094 116.5625 266.6875 116.542969 265.949219 116.8125 C 263.921875 117.546875 262.617188 119.769531 261.351562 121.917969 C 260.855469 122.765625 260.386719 123.5625 259.878906 124.265625 C 256.390625 129.085938 253.359375 134.339844 250.429688 139.421875 C 249.992188 140.183594 249.550781 140.945312 249.109375 141.707031 C 248.335938 143.042969 247.664062 144.339844 247.917969 145.574219 C 248.085938 146.40625 248.339844 146.753906 248.519531 146.800781 C 248.6875 146.847656 249.367188 146.832031 251.148438 144.804688 C 251.648438 144.238281 252.117188 143.546875 252.570312 142.878906 C 253.675781 141.253906 254.722656 139.714844 256.265625 139.742188 C 257.402344 139.761719 258.484375 140.640625 259.667969 142.511719 C 261.566406 145.507812 263.070312 148.949219 264.148438 152.332031 C 264.238281 152.613281 264.175781 152.917969 263.980469 153.136719 C 263.210938 154.003906 261.445312 156.136719 261.898438 157.328125 C 262.234375 158.203125 262.996094 158.828125 263.800781 159.488281 C 264.902344 160.386719 266.148438 161.410156 266.394531 163.238281 C 266.851562 166.644531 264.488281 167.960938 262.585938 169.019531 C 261.371094 169.695312 260.324219 170.28125 260.085938 171.230469 C 259.878906 172.039062 260.246094 173.195312 261.179688 174.667969 C 261.289062 174.839844 261.398438 175.007812 261.507812 175.179688 C 262.292969 176.390625 263.105469 177.648438 263.304688 179.160156 C 263.464844 180.371094 263.195312 181.519531 262.941406 182.632812 C 262.785156 183.308594 262.636719 183.945312 262.582031 184.582031 C 262.375 187.011719 263.699219 189.558594 265.8125 190.78125 C 266.804688 191.355469 268.300781 191.265625 269.746094 191.179688 C 270.945312 191.109375 272.1875 191.035156 273.234375 191.335938 C 274.523438 191.710938 275.339844 192.609375 275.652344 194.011719 C 276.640625 198.382812 270.71875 202.882812 266.394531 206.167969 C 265.246094 207.042969 264.25 207.796875 263.609375 208.386719 C 261.507812 210.332031 258.886719 212.75 256.050781 214.527344 C 252.769531 216.589844 249.6875 217.503906 246.625 217.328125 C 243.871094 217.171875 241.804688 215.929688 239.808594 214.730469 C 239.015625 214.25 238.191406 213.757812 237.332031 213.332031 C 233.71875 211.546875 229.417969 210.445312 225.960938 209.554688 C 222.65625 208.707031 218.765625 207.914062 214.972656 208.460938 C 210.460938 209.117188 206.203125 212.429688 203.582031 217.328125 C 202.703125 218.964844 202.609375 220.957031 202.511719 223.066406 C 202.371094 225.996094 202.226562 229.027344 199.800781 231.070312 C 198.304688 232.328125 196.359375 233.113281 194.015625 233.402344 C 193.339844 233.484375 192.636719 233.527344 191.90625 233.527344 " fill-opacity="1" fill-rule="nonzero"/></g><g clip-path="url(#34a68304b9)"><path fill="#f4b942" d="M 223.382812 73.582031 C 218.925781 73.582031 215.308594 77.199219 215.308594 81.660156 C 215.308594 86.117188 223.382812 97.804688 223.382812 97.804688 C 223.382812 97.804688 231.457031 86.117188 231.457031 81.660156 C 231.457031 77.199219 227.839844 73.582031 223.382812 73.582031 Z M 223.382812 85.480469 C 221.035156 85.480469 219.132812 83.582031 219.132812 81.230469 C 219.132812 78.886719 221.035156 76.984375 223.382812 76.984375 C 225.730469 76.984375 227.628906 78.886719 227.628906 81.230469 C 227.628906 83.582031 225.730469 85.480469 223.382812 85.480469 Z M 223.382812 85.480469 " fill-opacity="1" fill-rule="nonzero"/></g><g clip-path="url(#64c90f7e6b)"><path fill="#f4b942" d="M 147.621094 111.636719 C 143.164062 111.636719 139.546875 115.25 139.546875 119.710938 C 139.546875 124.171875 147.621094 135.859375 147.621094 135.859375 C 147.621094 135.859375 155.695312 124.171875 155.695312 119.710938 C 155.695312 115.25 152.082031 111.636719 147.621094 111.636719 Z M 147.621094 123.535156 C 145.273438 123.535156 143.371094 121.632812 143.371094 119.285156 C 143.371094 116.941406 145.273438 115.039062 147.621094 115.039062 C 149.96875 115.039062 151.871094 116.941406 151.871094 119.285156 C 151.871094 121.632812 149.96875 123.535156 147.621094 123.535156 Z M 147.621094 123.535156 " fill-opacity="1" fill-rule="nonzero"/></g><g clip-path="url(#f06ad07073)"><path fill="#f4b942" d="M 215.304688 171.46875 C 210.847656 171.46875 207.230469 175.085938 207.230469 179.542969 C 207.230469 184.003906 215.304688 195.691406 215.304688 195.691406 C 215.304688 195.691406 223.378906 184.003906 223.378906 179.542969 C 223.378906 175.085938 219.765625 171.46875 215.304688 171.46875 Z M 215.304688 183.367188 C 212.957031 183.367188 211.054688 181.46875 211.054688 179.117188 C 211.054688 176.773438 212.957031 174.871094 215.304688 174.871094 C 217.652344 174.871094 219.554688 176.773438 219.554688 179.117188 C 219.554688 181.46875 217.652344 183.367188 215.304688 183.367188 Z M 215.304688 183.367188 " fill-opacity="1" fill-rule="nonzero"/></g><g fill="#042698" fill-opacity="1"><g transform="translate(79.598256, 317.576949)"><g><path d="M 5.875 0 L 3.4375 0 L 3.4375 -9.453125 L 0.328125 -9.453125 L 0.328125 -11.484375 L 8.984375 -11.484375 L 8.984375 -9.453125 L 5.875 -9.453125 Z M 5.875 0 "/></g></g></g><g fill="#042698" fill-opacity="1"><g transform="translate(90.23888, 317.576949)"><g><path d="M 11.859375 -5.75 C 11.859375 -3.851562 11.382812 -2.394531 10.4375 -1.375 C 9.5 -0.351562 8.148438 0.15625 6.390625 0.15625 C 4.640625 0.15625 3.289062 -0.351562 2.34375 -1.375 C 1.40625 -2.394531 0.9375 -3.859375 0.9375 -5.765625 C 0.9375 -7.679688 1.40625 -9.140625 2.34375 -10.140625 C 3.289062 -11.148438 4.644531 -11.65625 6.40625 -11.65625 C 8.175781 -11.65625 9.523438 -11.144531 10.453125 -10.125 C 11.390625 -9.113281 11.859375 -7.65625 11.859375 -5.75 Z M 3.484375 -5.75 C 3.484375 -4.46875 3.726562 -3.503906 4.21875 -2.859375 C 4.707031 -2.210938 5.429688 -1.890625 6.390625 -1.890625 C 8.335938 -1.890625 9.3125 -3.175781 9.3125 -5.75 C 9.3125 -8.332031 8.34375 -9.625 6.40625 -9.625 C 5.445312 -9.625 4.71875 -9.296875 4.21875 -8.640625 C 3.726562 -7.992188 3.484375 -7.03125 3.484375 -5.75 Z M 3.484375 -5.75 "/></g></g></g><g fill="#042698" fill-opacity="1"><g transform="translate(104.363503, 317.576949)"><g><path d="M 10.78125 -11.484375 L 10.78125 -4.046875 C 10.78125 -3.203125 10.59375 -2.457031 10.21875 -1.8125 C 9.84375 -1.175781 9.296875 -0.6875 8.578125 -0.34375 C 7.859375 -0.0078125 7.007812 0.15625 6.03125 0.15625 C 4.550781 0.15625 3.398438 -0.21875 2.578125 -0.96875 C 1.765625 -1.726562 1.359375 -2.765625 1.359375 -4.078125 L 1.359375 -11.484375 L 3.796875 -11.484375 L 3.796875 -4.453125 C 3.796875 -3.566406 3.972656 -2.914062 4.328125 -2.5 C 4.679688 -2.09375 5.269531 -1.890625 6.09375 -1.890625 C 6.882812 -1.890625 7.457031 -2.09375 7.8125 -2.5 C 8.175781 -2.914062 8.359375 -3.570312 8.359375 -4.46875 L 8.359375 -11.484375 Z M 10.78125 -11.484375 "/></g></g></g><g fill="#042698" fill-opacity="1"><g transform="translate(117.844685, 317.576949)"><g><path d="M 5.875 0 L 3.4375 0 L 3.4375 -9.453125 L 0.328125 -9.453125 L 0.328125 -11.484375 L 8.984375 -11.484375 L 8.984375 -9.453125 L 5.875 -9.453125 Z M 5.875 0 "/></g></g></g><g fill="#042698" fill-opacity="1"><g transform="translate(128.485309, 317.576949)"><g/></g></g><g fill="#042698" fill-opacity="1"><g transform="translate(133.994097, 317.576949)"><g><path d="M 8.46875 0 L 7.640625 -2.734375 L 3.453125 -2.734375 L 2.625 0 L 0 0 L 4.046875 -11.53125 L 7.03125 -11.53125 L 11.09375 0 Z M 7.0625 -4.765625 C 6.289062 -7.242188 5.851562 -8.644531 5.75 -8.96875 C 5.65625 -9.289062 5.585938 -9.550781 5.546875 -9.75 C 5.378906 -9.070312 4.882812 -7.410156 4.0625 -4.765625 Z M 5.59375 -12.40625 C 5.269531 -12.632812 4.785156 -13.003906 4.140625 -13.515625 C 3.503906 -14.035156 3.007812 -14.46875 2.65625 -14.8125 L 2.65625 -14.96875 L 5.34375 -14.96875 C 5.664062 -14.445312 6.28125 -13.660156 7.1875 -12.609375 L 7.1875 -12.40625 Z M 5.59375 -12.40625 "/></g></g></g><g fill="#042698" fill-opacity="1"><g transform="translate(146.415959, 317.576949)"><g/></g></g><g fill="#042698" fill-opacity="1"><g transform="translate(151.924748, 317.576949)"><g><path d="M 3.875 -6.078125 L 4.671875 -6.078125 C 5.421875 -6.078125 5.984375 -6.222656 6.359375 -6.515625 C 6.734375 -6.816406 6.921875 -7.25 6.921875 -7.8125 C 6.921875 -8.382812 6.765625 -8.804688 6.453125 -9.078125 C 6.140625 -9.347656 5.648438 -9.484375 4.984375 -9.484375 L 3.875 -9.484375 Z M 9.375 -7.890625 C 9.375 -6.660156 8.988281 -5.71875 8.21875 -5.0625 C 7.445312 -4.40625 6.347656 -4.078125 4.921875 -4.078125 L 3.875 -4.078125 L 3.875 0 L 1.4375 0 L 1.4375 -11.484375 L 5.109375 -11.484375 C 6.503906 -11.484375 7.5625 -11.179688 8.28125 -10.578125 C 9.007812 -9.984375 9.375 -9.085938 9.375 -7.890625 Z M 9.375 -7.890625 "/></g></g></g><g fill="#042698" fill-opacity="1"><g transform="translate(163.350056, 317.576949)"><g><path d="M 11.859375 -5.75 C 11.859375 -3.851562 11.382812 -2.394531 10.4375 -1.375 C 9.5 -0.351562 8.148438 0.15625 6.390625 0.15625 C 4.640625 0.15625 3.289062 -0.351562 2.34375 -1.375 C 1.40625 -2.394531 0.9375 -3.859375 0.9375 -5.765625 C 0.9375 -7.679688 1.40625 -9.140625 2.34375 -10.140625 C 3.289062 -11.148438 4.644531 -11.65625 6.40625 -11.65625 C 8.175781 -11.65625 9.523438 -11.144531 10.453125 -10.125 C 11.390625 -9.113281 11.859375 -7.65625 11.859375 -5.75 Z M 3.484375 -5.75 C 3.484375 -4.46875 3.726562 -3.503906 4.21875 -2.859375 C 4.707031 -2.210938 5.429688 -1.890625 6.390625 -1.890625 C 8.335938 -1.890625 9.3125 -3.175781 9.3125 -5.75 C 9.3125 -8.332031 8.34375 -9.625 6.40625 -9.625 C 5.445312 -9.625 4.71875 -9.296875 4.21875 -8.640625 C 3.726562 -7.992188 3.484375 -7.03125 3.484375 -5.75 Z M 3.484375 -5.75 "/></g></g></g><g fill="#042698" fill-opacity="1"><g transform="translate(177.474679, 317.576949)"><g><path d="M 3.875 -6.375 L 4.65625 -6.375 C 5.425781 -6.375 5.992188 -6.503906 6.359375 -6.765625 C 6.734375 -7.023438 6.921875 -7.425781 6.921875 -7.96875 C 6.921875 -8.519531 6.734375 -8.910156 6.359375 -9.140625 C 5.984375 -9.367188 5.398438 -9.484375 4.609375 -9.484375 L 3.875 -9.484375 Z M 3.875 -4.40625 L 3.875 0 L 1.4375 0 L 1.4375 -11.484375 L 4.78125 -11.484375 C 6.34375 -11.484375 7.5 -11.195312 8.25 -10.625 C 9 -10.0625 9.375 -9.203125 9.375 -8.046875 C 9.375 -7.367188 9.1875 -6.765625 8.8125 -6.234375 C 8.445312 -5.710938 7.921875 -5.300781 7.234375 -5 C 8.960938 -2.414062 10.085938 -0.75 10.609375 0 L 7.90625 0 L 5.171875 -4.40625 Z M 3.875 -4.40625 "/></g></g></g><g fill="#042698" fill-opacity="1"><g transform="translate(189.417879, 317.576949)"><g><path d="M 5.875 0 L 3.4375 0 L 3.4375 -9.453125 L 0.328125 -9.453125 L 0.328125 -11.484375 L 8.984375 -11.484375 L 8.984375 -9.453125 L 5.875 -9.453125 Z M 5.875 0 "/></g></g></g><g fill="#042698" fill-opacity="1"><g transform="translate(200.058503, 317.576949)"><g><path d="M 8.0625 0 L 1.4375 0 L 1.4375 -11.484375 L 8.0625 -11.484375 L 8.0625 -9.484375 L 3.875 -9.484375 L 3.875 -6.96875 L 7.765625 -6.96875 L 7.765625 -4.96875 L 3.875 -4.96875 L 3.875 -2.015625 L 8.0625 -2.015625 Z M 3.328125 -12.40625 L 3.328125 -12.609375 C 4.222656 -13.660156 4.835938 -14.445312 5.171875 -14.96875 L 7.859375 -14.96875 L 7.859375 -14.8125 C 7.585938 -14.539062 7.117188 -14.132812 6.453125 -13.59375 C 5.796875 -13.0625 5.285156 -12.664062 4.921875 -12.40625 Z M 3.328125 -12.40625 "/></g></g></g><g fill="#042698" fill-opacity="1"><g transform="translate(210.393105, 317.576949)"><g><path d="M 8.0625 0 L 1.4375 0 L 1.4375 -11.484375 L 8.0625 -11.484375 L 8.0625 -9.484375 L 3.875 -9.484375 L 3.875 -6.96875 L 7.765625 -6.96875 L 7.765625 -4.96875 L 3.875 -4.96875 L 3.875 -2.015625 L 8.0625 -2.015625 Z M 8.0625 0 "/></g></g></g><g fill="#042698" fill-opacity="1"><g transform="translate(220.727706, 317.576949)"><g/></g></g><g fill="#042698" fill-opacity="1"><g transform="translate(226.236495, 317.576949)"><g><path d="M 10.96875 -5.84375 C 10.96875 -3.957031 10.425781 -2.507812 9.34375 -1.5 C 8.269531 -0.5 6.71875 0 4.6875 0 L 1.4375 0 L 1.4375 -11.484375 L 5.046875 -11.484375 C 6.921875 -11.484375 8.375 -10.988281 9.40625 -10 C 10.445312 -9.007812 10.96875 -7.625 10.96875 -5.84375 Z M 8.4375 -5.78125 C 8.4375 -8.25 7.347656 -9.484375 5.171875 -9.484375 L 3.875 -9.484375 L 3.875 -2.015625 L 4.921875 -2.015625 C 7.265625 -2.015625 8.4375 -3.269531 8.4375 -5.78125 Z M 8.4375 -5.78125 "/></g></g></g><g fill="#042698" fill-opacity="1"><g transform="translate(239.466568, 317.576949)"><g><path d="M 8.0625 0 L 1.4375 0 L 1.4375 -11.484375 L 8.0625 -11.484375 L 8.0625 -9.484375 L 3.875 -9.484375 L 3.875 -6.96875 L 7.765625 -6.96875 L 7.765625 -4.96875 L 3.875 -4.96875 L 3.875 -2.015625 L 8.0625 -2.015625 Z M 8.0625 0 "/></g></g></g><g fill="#042698" fill-opacity="1"><g transform="translate(249.801169, 317.576949)"><g/></g></g><g fill="#042698" fill-opacity="1"><g transform="translate(255.309958, 317.576949)"><g><path d="M 3.875 -6.078125 L 4.671875 -6.078125 C 5.421875 -6.078125 5.984375 -6.222656 6.359375 -6.515625 C 6.734375 -6.816406 6.921875 -7.25 6.921875 -7.8125 C 6.921875 -8.382812 6.765625 -8.804688 6.453125 -9.078125 C 6.140625 -9.347656 5.648438 -9.484375 4.984375 -9.484375 L 3.875 -9.484375 Z M 9.375 -7.890625 C 9.375 -6.660156 8.988281 -5.71875 8.21875 -5.0625 C 7.445312 -4.40625 6.347656 -4.078125 4.921875 -4.078125 L 3.875 -4.078125 L 3.875 0 L 1.4375 0 L 1.4375 -11.484375 L 5.109375 -11.484375 C 6.503906 -11.484375 7.5625 -11.179688 8.28125 -10.578125 C 9.007812 -9.984375 9.375 -9.085938 9.375 -7.890625 Z M 9.375 -7.890625 "/></g></g></g><g fill="#042698" fill-opacity="1"><g transform="translate(266.735276, 317.576949)"><g><path d="M 8.46875 0 L 7.640625 -2.734375 L 3.453125 -2.734375 L 2.625 0 L 0 0 L 4.046875 -11.53125 L 7.03125 -11.53125 L 11.09375 0 Z M 7.0625 -4.765625 C 6.289062 -7.242188 5.851562 -8.644531 5.75 -8.96875 C 5.65625 -9.289062 5.585938 -9.550781 5.546875 -9.75 C 5.378906 -9.070312 4.882812 -7.410156 4.0625 -4.765625 Z M 7.0625 -4.765625 "/></g></g></g><g fill="#042698" fill-opacity="1"><g transform="translate(279.157147, 317.576949)"><g><path d="M 8.21875 -3.1875 C 8.21875 -2.15625 7.84375 -1.335938 7.09375 -0.734375 C 6.351562 -0.140625 5.316406 0.15625 3.984375 0.15625 C 2.765625 0.15625 1.679688 -0.0703125 0.734375 -0.53125 L 0.734375 -2.796875 C 1.515625 -2.453125 2.171875 -2.207031 2.703125 -2.0625 C 3.242188 -1.925781 3.734375 -1.859375 4.171875 -1.859375 C 4.710938 -1.859375 5.125 -1.957031 5.40625 -2.15625 C 5.6875 -2.363281 5.828125 -2.664062 5.828125 -3.0625 C 5.828125 -3.289062 5.765625 -3.492188 5.640625 -3.671875 C 5.515625 -3.847656 5.328125 -4.015625 5.078125 -4.171875 C 4.835938 -4.335938 4.347656 -4.597656 3.609375 -4.953125 C 2.898438 -5.285156 2.367188 -5.601562 2.015625 -5.90625 C 1.671875 -6.207031 1.394531 -6.554688 1.1875 -6.953125 C 0.976562 -7.359375 0.875 -7.832031 0.875 -8.375 C 0.875 -9.394531 1.21875 -10.191406 1.90625 -10.765625 C 2.59375 -11.347656 3.539062 -11.640625 4.75 -11.640625 C 5.351562 -11.640625 5.925781 -11.566406 6.46875 -11.421875 C 7.007812 -11.285156 7.578125 -11.085938 8.171875 -10.828125 L 7.375 -8.9375 C 6.769531 -9.1875 6.265625 -9.359375 5.859375 -9.453125 C 5.460938 -9.554688 5.066406 -9.609375 4.671875 -9.609375 C 4.210938 -9.609375 3.859375 -9.5 3.609375 -9.28125 C 3.367188 -9.070312 3.25 -8.796875 3.25 -8.453125 C 3.25 -8.242188 3.296875 -8.054688 3.390625 -7.890625 C 3.492188 -7.734375 3.65625 -7.578125 3.875 -7.421875 C 4.09375 -7.273438 4.609375 -7.007812 5.421875 -6.625 C 6.492188 -6.113281 7.226562 -5.597656 7.625 -5.078125 C 8.019531 -4.566406 8.21875 -3.9375 8.21875 -3.1875 Z M 8.21875 -3.1875 "/></g></g></g><g fill="#042698" fill-opacity="1"><g transform="translate(289.342654, 317.576949)"><g><path d="M 8.21875 -3.1875 C 8.21875 -2.15625 7.84375 -1.335938 7.09375 -0.734375 C 6.351562 -0.140625 5.316406 0.15625 3.984375 0.15625 C 2.765625 0.15625 1.679688 -0.0703125 0.734375 -0.53125 L 0.734375 -2.796875 C 1.515625 -2.453125 2.171875 -2.207031 2.703125 -2.0625 C 3.242188 -1.925781 3.734375 -1.859375 4.171875 -1.859375 C 4.710938 -1.859375 5.125 -1.957031 5.40625 -2.15625 C 5.6875 -2.363281 5.828125 -2.664062 5.828125 -3.0625 C 5.828125 -3.289062 5.765625 -3.492188 5.640625 -3.671875 C 5.515625 -3.847656 5.328125 -4.015625 5.078125 -4.171875 C 4.835938 -4.335938 4.347656 -4.597656 3.609375 -4.953125 C 2.898438 -5.285156 2.367188 -5.601562 2.015625 -5.90625 C 1.671875 -6.207031 1.394531 -6.554688 1.1875 -6.953125 C 0.976562 -7.359375 0.875 -7.832031 0.875 -8.375 C 0.875 -9.394531 1.21875 -10.191406 1.90625 -10.765625 C 2.59375 -11.347656 3.539062 -11.640625 4.75 -11.640625 C 5.351562 -11.640625 5.925781 -11.566406 6.46875 -11.421875 C 7.007812 -11.285156 7.578125 -11.085938 8.171875 -10.828125 L 7.375 -8.9375 C 6.769531 -9.1875 6.265625 -9.359375 5.859375 -9.453125 C 5.460938 -9.554688 5.066406 -9.609375 4.671875 -9.609375 C 4.210938 -9.609375 3.859375 -9.5 3.609375 -9.28125 C 3.367188 -9.070312 3.25 -8.796875 3.25 -8.453125 C 3.25 -8.242188 3.296875 -8.054688 3.390625 -7.890625 C 3.492188 -7.734375 3.65625 -7.578125 3.875 -7.421875 C 4.09375 -7.273438 4.609375 -7.007812 5.421875 -6.625 C 6.492188 -6.113281 7.226562 -5.597656 7.625 -5.078125 C 8.019531 -4.566406 8.21875 -3.9375 8.21875 -3.1875 Z M 8.21875 -3.1875 "/></g></g></g><g fill="#369694" fill-opacity="1"><g transform="translate(109.458842, 291.684581)"><g><path d="M 9.28125 -33.4375 L 9.609375 -32.9375 C 8.847656 -29.9375 7.503906 -26.285156 5.578125 -21.984375 L 0.578125 -21.984375 C 1.628906 -26.492188 2.390625 -30.3125 2.859375 -33.4375 Z M 9.28125 -33.4375 "/></g></g></g><g fill="#369694" fill-opacity="1"><g transform="translate(135.59208, 291.684581)"><g><path d="M 11.296875 -17.703125 L 13.625 -17.703125 C 15.8125 -17.703125 17.445312 -18.128906 18.53125 -18.984375 C 19.613281 -19.847656 20.15625 -21.109375 20.15625 -22.765625 C 20.15625 -24.421875 19.695312 -25.644531 18.78125 -26.4375 C 17.875 -27.226562 16.457031 -27.625 14.53125 -27.625 L 11.296875 -27.625 Z M 27.3125 -23.015625 C 27.3125 -19.410156 26.1875 -16.65625 23.9375 -14.75 C 21.6875 -12.84375 18.488281 -11.890625 14.34375 -11.890625 L 11.296875 -11.890625 L 11.296875 0 L 4.203125 0 L 4.203125 -33.4375 L 14.890625 -33.4375 C 18.941406 -33.4375 22.023438 -32.5625 24.140625 -30.8125 C 26.253906 -29.070312 27.3125 -26.472656 27.3125 -23.015625 Z M 27.3125 -23.015625 "/></g></g></g><g fill="#369694" fill-opacity="1"><g transform="translate(180.984151, 291.684581)"><g><path d="M 24.6875 0 L 22.25 -7.953125 L 10.0625 -7.953125 L 7.640625 0 L 0 0 L 11.796875 -33.578125 L 20.46875 -33.578125 L 32.3125 0 Z M 20.5625 -13.90625 C 18.320312 -21.113281 17.0625 -25.191406 16.78125 -26.140625 C 16.5 -27.085938 16.296875 -27.835938 16.171875 -28.390625 C 15.671875 -26.429688 14.226562 -21.601562 11.84375 -13.90625 Z M 20.5625 -13.90625 "/></g></g></g><g fill="#369694" fill-opacity="1"><g transform="translate(229.281059, 291.684581)"><g><path d="M 23.953125 -9.28125 C 23.953125 -6.257812 22.863281 -3.878906 20.6875 -2.140625 C 18.507812 -0.410156 15.488281 0.453125 11.625 0.453125 C 8.050781 0.453125 4.894531 -0.21875 2.15625 -1.5625 L 2.15625 -8.140625 C 4.40625 -7.140625 6.3125 -6.429688 7.875 -6.015625 C 9.4375 -5.597656 10.867188 -5.390625 12.171875 -5.390625 C 13.722656 -5.390625 14.914062 -5.6875 15.75 -6.28125 C 16.582031 -6.882812 17 -7.769531 17 -8.9375 C 17 -9.59375 16.8125 -10.175781 16.4375 -10.6875 C 16.070312 -11.195312 15.535156 -11.6875 14.828125 -12.15625 C 14.117188 -12.632812 12.675781 -13.394531 10.5 -14.4375 C 8.457031 -15.394531 6.925781 -16.316406 5.90625 -17.203125 C 4.882812 -18.085938 4.066406 -19.113281 3.453125 -20.28125 C 2.835938 -21.457031 2.53125 -22.832031 2.53125 -24.40625 C 2.53125 -27.363281 3.53125 -29.6875 5.53125 -31.375 C 7.539062 -33.070312 10.316406 -33.921875 13.859375 -33.921875 C 15.597656 -33.921875 17.253906 -33.710938 18.828125 -33.296875 C 20.410156 -32.890625 22.0625 -32.3125 23.78125 -31.5625 L 21.5 -26.046875 C 19.71875 -26.785156 18.242188 -27.296875 17.078125 -27.578125 C 15.910156 -27.867188 14.757812 -28.015625 13.625 -28.015625 C 12.289062 -28.015625 11.265625 -27.703125 10.546875 -27.078125 C 9.828125 -26.453125 9.46875 -25.640625 9.46875 -24.640625 C 9.46875 -24.015625 9.613281 -23.46875 9.90625 -23 C 10.195312 -22.53125 10.65625 -22.078125 11.28125 -21.640625 C 11.914062 -21.210938 13.414062 -20.4375 15.78125 -19.3125 C 18.90625 -17.8125 21.046875 -16.3125 22.203125 -14.8125 C 23.367188 -13.3125 23.953125 -11.46875 23.953125 -9.28125 Z M 23.953125 -9.28125 "/></g></g></g><g fill="#369694" fill-opacity="1"><g transform="translate(271.059248, 291.684581)"><g><path d="M 23.953125 -9.28125 C 23.953125 -6.257812 22.863281 -3.878906 20.6875 -2.140625 C 18.507812 -0.410156 15.488281 0.453125 11.625 0.453125 C 8.050781 0.453125 4.894531 -0.21875 2.15625 -1.5625 L 2.15625 -8.140625 C 4.40625 -7.140625 6.3125 -6.429688 7.875 -6.015625 C 9.4375 -5.597656 10.867188 -5.390625 12.171875 -5.390625 C 13.722656 -5.390625 14.914062 -5.6875 15.75 -6.28125 C 16.582031 -6.882812 17 -7.769531 17 -8.9375 C 17 -9.59375 16.8125 -10.175781 16.4375 -10.6875 C 16.070312 -11.195312 15.535156 -11.6875 14.828125 -12.15625 C 14.117188 -12.632812 12.675781 -13.394531 10.5 -14.4375 C 8.457031 -15.394531 6.925781 -16.316406 5.90625 -17.203125 C 4.882812 -18.085938 4.066406 -19.113281 3.453125 -20.28125 C 2.835938 -21.457031 2.53125 -22.832031 2.53125 -24.40625 C 2.53125 -27.363281 3.53125 -29.6875 5.53125 -31.375 C 7.539062 -33.070312 10.316406 -33.921875 13.859375 -33.921875 C 15.597656 -33.921875 17.253906 -33.710938 18.828125 -33.296875 C 20.410156 -32.890625 22.0625 -32.3125 23.78125 -31.5625 L 21.5 -26.046875 C 19.71875 -26.785156 18.242188 -27.296875 17.078125 -27.578125 C 15.910156 -27.867188 14.757812 -28.015625 13.625 -28.015625 C 12.289062 -28.015625 11.265625 -27.703125 10.546875 -27.078125 C 9.828125 -26.453125 9.46875 -25.640625 9.46875 -24.640625 C 9.46875 -24.015625 9.613281 -23.46875 9.90625 -23 C 10.195312 -22.53125 10.65625 -22.078125 11.28125 -21.640625 C 11.914062 -21.210938 13.414062 -20.4375 15.78125 -19.3125 C 18.90625 -17.8125 21.046875 -16.3125 22.203125 -14.8125 C 23.367188 -13.3125 23.953125 -11.46875 23.953125 -9.28125 Z M 23.953125 -9.28125 "/></g></g></g><g fill="#369694" fill-opacity="1"><g transform="translate(312.838034, 291.684581)"><g/></g></g><g clip-path="url(#5189575f3b)"><path fill="#f4b942" d="M 89.214844 255.765625 C 82.445312 255.765625 76.957031 261.253906 76.957031 268.023438 C 76.957031 274.792969 89.214844 292.535156 89.214844 292.535156 C 89.214844 292.535156 101.472656 274.792969 101.472656 268.023438 C 101.472656 261.253906 95.984375 255.765625 89.214844 255.765625 Z M 89.214844 273.828125 C 85.652344 273.828125 82.765625 270.941406 82.765625 267.375 C 82.765625 263.816406 85.652344 260.925781 89.214844 260.925781 C 92.777344 260.925781 95.664062 263.816406 95.664062 267.375 C 95.664062 270.941406 92.777344 273.828125 89.214844 273.828125 Z M 89.214844 273.828125 " fill-opacity="1" fill-rule="nonzero"/></g><g clip-path="url(#6c57b9e71e)"><g clip-path="url(#459247e17d)"><path fill="#369694" d="M 81.507812 260.441406 L 96.929688 260.441406 L 96.929688 275.863281 L 81.507812 275.863281 Z M 81.507812 260.441406 " fill-opacity="1" fill-rule="nonzero"/></g></g><g clip-path="url(#ab453ebc62)"><g clip-path="url(#2f3e19e37b)"><path stroke-linecap="butt" transform="matrix(0.981798, 0, 0, 0.981798, 81.506968, 260.439564)" fill="none" stroke-linejoin="miter" d="M 7.850777 0.00187671 C 3.514026 0.00187671 0.00086021 3.515043 0.00086021 7.851793 C 0.00086021 12.188544 3.514026 15.70171 7.850777 15.70171 C 12.187528 15.70171 15.704672 12.188544 15.704672 7.851793 C 15.704672 3.515043 12.187528 0.00187671 7.850777 0.00187671 Z M 7.850777 0.00187671 " stroke="#f5f5f5" stroke-width="4.583428" stroke-opacity="1" stroke-miterlimit="4"/></g></g></svg>