<svg xmlns="http://www.w3.org/2000/svg" xmlns:xlink="http://www.w3.org/1999/xlink" width="500" zoomAndPan="magnify" viewBox="0 0 375 374.999991" height="500" preserveAspectRatio="xMidYMid meet" version="1.0"><defs><g/><clipPath id="a61833068f"><path d="M 50.492188 44.269531 L 336.957031 44.269531 L 336.957031 330.730469 L 50.492188 330.730469 Z M 50.492188 44.269531 " clip-rule="nonzero"/></clipPath><clipPath id="c32d057a81"><path d="M 193.722656 44.269531 C 114.617188 44.269531 50.492188 108.394531 50.492188 187.5 C 50.492188 266.605469 114.617188 330.730469 193.722656 330.730469 C 272.828125 330.730469 336.957031 266.605469 336.957031 187.5 C 336.957031 108.394531 272.828125 44.269531 193.722656 44.269531 Z M 193.722656 44.269531 " clip-rule="nonzero"/></clipPath><clipPath id="6bd1a903c9"><path d="M 107.390625 65.558594 L 265.332031 65.558594 L 265.332031 222.605469 L 107.390625 222.605469 Z M 107.390625 65.558594 " clip-rule="nonzero"/></clipPath><clipPath id="aacd4a35a6"><path d="M 214.96875 100.367188 L 227.496094 100.367188 L 227.496094 119 L 214.96875 119 Z M 214.96875 100.367188 " clip-rule="nonzero"/></clipPath><clipPath id="7d6f872931"><path d="M 157.097656 129.4375 L 169.625 129.4375 L 169.625 148.226562 L 157.097656 148.226562 Z M 157.097656 129.4375 " clip-rule="nonzero"/></clipPath><clipPath id="399757a299"><path d="M 208.800781 175.144531 L 221.328125 175.144531 L 221.328125 193.933594 L 208.800781 193.933594 Z M 208.800781 175.144531 " clip-rule="nonzero"/></clipPath><clipPath id="56975dc45e"><path d="M 109.285156 239.488281 L 128.078125 239.488281 L 128.078125 268 L 109.285156 268 Z M 109.285156 239.488281 " clip-rule="nonzero"/></clipPath><clipPath id="bf1a153dc7"><path d="M 112.753906 243.21875 L 124.535156 243.21875 L 124.535156 255 L 112.753906 255 Z M 112.753906 243.21875 " clip-rule="nonzero"/></clipPath><clipPath id="bae4518afa"><path d="M 118.644531 243.21875 C 115.390625 243.21875 112.753906 245.855469 112.753906 249.109375 C 112.753906 252.363281 115.390625 255 118.644531 255 C 121.898438 255 124.535156 252.363281 124.535156 249.109375 C 124.535156 245.855469 121.898438 243.21875 118.644531 243.21875 Z M 118.644531 243.21875 " clip-rule="nonzero"/></clipPath><clipPath id="fad3481a9e"><path d="M 112.753906 243.21875 L 124.386719 243.21875 L 124.386719 254.851562 L 112.753906 254.851562 Z M 112.753906 243.21875 " clip-rule="nonzero"/></clipPath><clipPath id="91f7dddcec"><path d="M 118.644531 243.21875 C 115.390625 243.21875 112.753906 245.855469 112.753906 249.109375 C 112.753906 252.363281 115.390625 255 118.644531 255 C 121.898438 255 124.535156 252.363281 124.535156 249.109375 C 124.535156 245.855469 121.898438 243.21875 118.644531 243.21875 Z M 118.644531 243.21875 " clip-rule="nonzero"/></clipPath></defs><g clip-path="url(#a61833068f)"><g clip-path="url(#c32d057a81)"><path fill="#f5f5f5" d="M 50.492188 44.269531 L 336.957031 44.269531 L 336.957031 330.730469 L 50.492188 330.730469 Z M 50.492188 44.269531 " fill-opacity="1" fill-rule="nonzero"/></g></g><g clip-path="url(#6bd1a903c9)"><path fill="#4059ad" d="M 177.46875 212.890625 C 178.523438 212.890625 179.578125 213.113281 180.625 213.699219 C 181.824219 214.371094 182.835938 215.292969 183.816406 216.1875 C 184.289062 216.617188 184.78125 217.0625 185.277344 217.464844 C 187.289062 219.101562 190.613281 220.566406 193.746094 221.203125 C 197.472656 221.960938 200.550781 221.511719 202.417969 219.945312 C 203.90625 218.695312 204 216.710938 204.101562 214.617188 C 204.179688 212.953125 204.261719 211.238281 205.046875 209.765625 C 207.210938 205.722656 210.765625 202.976562 214.554688 202.429688 C 217.644531 201.980469 220.75 202.613281 223.378906 203.289062 C 226.066406 203.980469 229.414062 204.839844 232.277344 206.25 C 232.976562 206.597656 233.621094 206.984375 234.246094 207.363281 C 235.726562 208.25 237.121094 209.089844 238.953125 209.191406 C 243.746094 209.46875 247.835938 205.6875 251.125 202.652344 C 251.652344 202.164062 252.429688 201.574219 253.332031 200.886719 C 256.226562 198.691406 260.597656 195.367188 260 192.714844 C 259.679688 191.292969 258.5625 191.289062 256.617188 191.402344 C 255.351562 191.476562 254.042969 191.554688 253 190.953125 C 251.003906 189.796875 249.792969 187.476562 249.992188 185.175781 C 250.039062 184.613281 250.167969 184.066406 250.289062 183.535156 C 250.472656 182.746094 250.644531 182 250.550781 181.273438 C 250.429688 180.359375 249.902344 179.542969 249.34375 178.679688 C 249.257812 178.546875 249.171875 178.414062 249.085938 178.28125 C 248.183594 176.851562 247.871094 175.746094 248.113281 174.800781 C 248.414062 173.617188 249.5 173.011719 250.554688 172.425781 C 251.953125 171.648438 253.160156 170.976562 252.910156 169.109375 C 252.78125 168.140625 252.101562 167.585938 251.320312 166.945312 C 250.621094 166.375 249.894531 165.78125 249.535156 164.839844 C 249.003906 163.433594 250.082031 161.949219 250.570312 161.378906 C 250.769531 161.144531 250.941406 160.964844 251.089844 160.832031 C 251.15625 160.773438 251.183594 160.679688 251.15625 160.59375 C 250.375 158.175781 249.289062 155.867188 247.929688 153.714844 C 247.097656 152.398438 246.550781 152.113281 246.238281 152.109375 C 246.234375 152.109375 246.234375 152.109375 246.230469 152.109375 C 245.640625 152.109375 244.980469 153.085938 244.339844 154.027344 C 243.972656 154.566406 243.59375 155.121094 243.171875 155.605469 C 242.28125 156.621094 241.121094 157.75 240.058594 157.46875 C 239.433594 157.300781 239.011719 156.703125 238.804688 155.691406 C 238.515625 154.261719 239.316406 152.882812 239.84375 151.96875 C 240.179688 151.390625 240.515625 150.808594 240.851562 150.226562 C 243.101562 146.320312 245.433594 142.28125 248.128906 138.554688 C 248.488281 138.058594 248.835938 137.46875 249.199219 136.847656 C 250.214844 135.125 251.363281 133.167969 253.28125 132.472656 C 254.035156 132.195312 254.789062 132.214844 255.515625 132.230469 C 256.714844 132.261719 257.582031 132.28125 258.25 131.117188 C 258.953125 129.886719 258.832031 128.3125 258.710938 126.789062 L 258.703125 126.652344 C 258.457031 123.46875 258.6875 120.832031 259.425781 118.34375 C 259.8125 117.054688 260.332031 115.796875 261.015625 114.507812 C 261.1875 114.179688 261.398438 113.808594 261.621094 113.414062 C 263.070312 110.863281 265.257812 107.011719 263.246094 105.050781 C 262.285156 104.117188 260.632812 104.019531 259.035156 103.925781 C 258.339844 103.882812 257.6875 103.84375 257.09375 103.738281 C 254.5 103.269531 252.042969 102.375 249.792969 101.082031 C 248.9375 100.589844 248.105469 100.039062 247.304688 99.503906 C 245.851562 98.535156 244.480469 97.621094 242.933594 97.003906 C 241.226562 96.324219 239.429688 96.046875 237.523438 95.757812 C 236.503906 95.601562 235.449219 95.441406 234.421875 95.210938 C 232.058594 94.6875 229.707031 90.746094 227.921875 87.371094 C 227.226562 86.050781 225.613281 85.480469 224.257812 86.070312 C 223 86.617188 221.664062 86.96875 220.851562 86.96875 C 220.84375 86.96875 220.839844 86.96875 220.835938 86.96875 C 218.742188 86.957031 218.292969 85.949219 217.820312 84.878906 C 217.667969 84.539062 217.507812 84.183594 217.28125 83.8125 C 214.917969 79.964844 210.914062 77.324219 207.964844 75.785156 C 206.933594 75.246094 205.808594 74.84375 204.617188 74.417969 C 202.257812 73.574219 199.820312 72.703125 198.136719 70.671875 C 197.617188 70.050781 197.238281 69.28125 197.066406 68.507812 C 196.820312 67.425781 195.824219 66.71875 194.742188 66.863281 C 191.476562 67.304688 188 68.066406 186.984375 70.386719 C 186.664062 71.125 186.726562 72.027344 186.785156 72.902344 L 186.789062 72.960938 C 187.019531 76.335938 187.035156 80.257812 185.414062 83.714844 C 184.0625 86.589844 180.3125 87.929688 176.683594 89.230469 C 173.503906 90.367188 170.503906 91.441406 169.652344 93.355469 C 169.285156 94.1875 169.339844 95.15625 169.820312 96.316406 C 170.273438 97.414062 169.789062 98.679688 168.710938 99.191406 C 166.828125 100.085938 164.75 100.519531 162.679688 100.519531 C 158.945312 100.519531 155.21875 99.117188 152.621094 96.5 C 152.429688 96.304688 152.230469 96.09375 152.023438 95.871094 C 150.660156 94.429688 148.96875 92.632812 147.183594 93.453125 C 145.492188 94.230469 145.398438 96.945312 145.980469 98.523438 C 146.398438 99.660156 147.066406 100.667969 147.769531 101.742188 C 148.316406 102.570312 148.882812 103.425781 149.324219 104.351562 C 150.964844 107.78125 149.804688 109.84375 148.542969 110.972656 C 147.585938 111.824219 146.226562 112.464844 144.496094 112.878906 C 143 113.242188 141.226562 113.421875 139.375 113.402344 C 135.796875 113.367188 132.308594 112.609375 130.488281 111.46875 C 130.226562 111.304688 129.960938 111.125 129.703125 110.957031 C 128.601562 110.222656 127.558594 109.53125 126.382812 109.480469 C 125.039062 109.425781 123.773438 110.253906 122.546875 111.054688 C 122.359375 111.179688 122.164062 111.304688 121.972656 111.425781 C 120.480469 112.375 118.304688 112.375 116 112.378906 C 112.570312 112.378906 109.332031 112.382812 108.714844 115.503906 C 108.582031 116.191406 108.851562 116.941406 109.421875 117.460938 C 109.757812 117.769531 110.425781 117.832031 111.074219 117.898438 C 111.449219 117.933594 111.839844 117.972656 112.1875 118.058594 C 112.273438 118.082031 112.371094 118.105469 112.46875 118.128906 C 113.140625 118.285156 114.0625 118.5 114.511719 119.160156 C 114.789062 119.566406 114.761719 119.9375 114.691406 120.175781 C 114.441406 121.007812 113.269531 121.5 112.410156 121.859375 C 112.195312 121.949219 111.972656 122.039062 111.886719 122.09375 C 110.808594 122.742188 110.765625 123.195312 110.851562 123.519531 C 110.984375 124.039062 111.703125 124.855469 114.351562 125.8125 C 116.320312 126.519531 118.769531 127.09375 120.734375 127.554688 C 121.449219 127.722656 122.125 127.878906 122.703125 128.027344 C 125.882812 128.835938 129.578125 129.902344 132.847656 131.679688 C 136.410156 133.613281 138.945312 136.09375 140.597656 139.257812 C 141.3125 140.632812 141.46875 142.144531 141.617188 143.605469 C 141.777344 145.171875 141.929688 146.652344 142.75 147.839844 L 142.753906 147.84375 C 143.792969 149.339844 145.351562 150.394531 146.996094 151.4375 C 156.023438 157.148438 153.871094 172.945312 152.445312 183.398438 C 152.265625 184.726562 152.09375 185.980469 151.964844 187.09375 C 151.867188 187.902344 151.78125 188.726562 151.699219 189.523438 C 151.417969 192.242188 151.125 195.050781 150.417969 197.675781 C 149.621094 200.644531 148.363281 203.066406 146.574219 205.074219 L 146.566406 205.082031 C 146.328125 205.351562 146.222656 205.710938 146.273438 206.066406 C 146.324219 206.417969 146.523438 206.726562 146.824219 206.914062 C 148.710938 208.085938 151.546875 209.222656 154.289062 210.316406 C 156.042969 211.019531 157.859375 211.742188 159.4375 212.480469 C 159.902344 212.699219 160.371094 212.929688 160.824219 213.152344 C 162.417969 213.933594 164.066406 214.742188 165.789062 215.128906 C 167.910156 215.609375 170.125 214.835938 172.265625 214.09375 C 173.976562 213.496094 175.726562 212.890625 177.46875 212.890625 Z M 197.09375 222.65625 C 195.976562 222.65625 194.78125 222.53125 193.527344 222.273438 C 190.234375 221.605469 186.726562 220.050781 184.589844 218.316406 C 184.066406 217.894531 183.566406 217.4375 183.082031 216.996094 C 182.101562 216.105469 181.179688 215.265625 180.089844 214.652344 C 177.753906 213.339844 175.261719 214.207031 172.625 215.125 C 170.855469 215.742188 169.039062 216.375 167.179688 216.375 C 166.640625 216.375 166.09375 216.320312 165.546875 216.195312 C 163.699219 215.78125 161.992188 214.945312 160.34375 214.132812 C 159.894531 213.914062 159.429688 213.6875 158.972656 213.472656 C 157.421875 212.746094 155.625 212.027344 153.882812 211.332031 C 151.097656 210.21875 148.214844 209.066406 146.246094 207.84375 C 145.671875 207.484375 145.285156 206.894531 145.191406 206.226562 C 145.09375 205.546875 145.296875 204.863281 145.753906 204.351562 L 145.761719 204.34375 C 149.492188 200.148438 150.035156 194.929688 150.613281 189.410156 C 150.695312 188.609375 150.78125 187.78125 150.875 186.964844 C 151.007812 185.84375 151.179688 184.582031 151.363281 183.25 C 152.0625 178.109375 152.933594 171.703125 152.554688 165.875 C 152.113281 159.121094 150.105469 154.699219 146.410156 152.359375 C 144.671875 151.257812 143.015625 150.132812 141.859375 148.472656 L 141.851562 148.457031 C 140.871094 147.039062 140.699219 145.351562 140.53125 143.71875 C 140.386719 142.296875 140.246094 140.953125 139.625 139.765625 C 136.121094 133.054688 128.914062 130.734375 122.433594 129.085938 C 121.863281 128.941406 121.195312 128.785156 120.488281 128.621094 C 114.988281 127.332031 110.390625 126.082031 109.792969 123.796875 C 109.402344 122.308594 110.847656 121.441406 111.320312 121.15625 C 111.476562 121.0625 111.703125 120.96875 111.988281 120.847656 C 112.335938 120.703125 112.769531 120.523438 113.113281 120.320312 C 113.578125 120.046875 113.636719 119.882812 113.644531 119.863281 C 113.648438 119.839844 113.625 119.800781 113.609375 119.777344 C 113.398438 119.46875 112.71875 119.308594 112.222656 119.191406 C 112.113281 119.167969 112.011719 119.144531 111.914062 119.121094 C 111.648438 119.050781 111.316406 119.019531 110.96875 118.984375 C 110.179688 118.910156 109.292969 118.824219 108.683594 118.269531 C 107.832031 117.492188 107.433594 116.351562 107.644531 115.292969 C 108 113.480469 109.058594 112.324219 110.875 111.757812 C 112.386719 111.285156 114.222656 111.285156 116 111.285156 C 118.140625 111.28125 120.164062 111.28125 121.386719 110.503906 C 121.574219 110.386719 121.765625 110.261719 121.949219 110.140625 C 123.316406 109.246094 124.734375 108.320312 126.429688 108.390625 C 127.910156 108.449219 129.128906 109.261719 130.308594 110.042969 C 130.558594 110.210938 130.820312 110.382812 131.070312 110.542969 C 132.707031 111.566406 136.046875 112.277344 139.386719 112.308594 C 143.164062 112.347656 146.238281 111.5625 147.8125 110.152344 C 149.242188 108.878906 149.417969 107.085938 148.339844 104.820312 C 147.929688 103.964844 147.382812 103.140625 146.859375 102.339844 C 146.148438 101.265625 145.417969 100.15625 144.953125 98.898438 C 144.566406 97.851562 144.460938 96.546875 144.667969 95.414062 C 144.925781 94.003906 145.65625 92.953125 146.726562 92.460938 C 147.839844 91.949219 149.019531 92.066406 150.238281 92.820312 C 151.21875 93.425781 152.070312 94.328125 152.816406 95.121094 C 153.023438 95.339844 153.21875 95.542969 153.398438 95.726562 C 157.121094 99.480469 163.363281 100.519531 168.242188 98.203125 C 168.792969 97.941406 169.039062 97.296875 168.808594 96.734375 C 168.214844 95.300781 168.164062 94.015625 168.652344 92.910156 C 169.695312 90.566406 172.910156 89.417969 176.316406 88.199219 C 179.730469 86.976562 183.265625 85.710938 184.421875 83.25 C 185.941406 80.015625 185.917969 76.273438 185.699219 73.035156 L 185.695312 72.976562 C 185.628906 72.019531 185.554688 70.933594 185.984375 69.949219 C 187.214844 67.132812 191.03125 66.261719 194.597656 65.777344 C 196.242188 65.558594 197.761719 66.628906 198.132812 68.269531 C 198.269531 68.875 198.566406 69.484375 198.976562 69.972656 C 200.472656 71.773438 202.664062 72.558594 204.984375 73.386719 C 206.160156 73.808594 207.371094 74.242188 208.472656 74.816406 C 211.539062 76.417969 215.71875 79.179688 218.214844 83.238281 C 218.480469 83.671875 218.660156 84.078125 218.816406 84.4375 C 219.253906 85.417969 219.453125 85.867188 220.839844 85.875 C 220.84375 85.875 220.847656 85.875 220.851562 85.875 C 221.507812 85.875 222.726562 85.542969 223.820312 85.066406 C 225.699219 84.25 227.925781 85.039062 228.890625 86.859375 C 229.777344 88.542969 232.484375 93.664062 234.660156 94.144531 C 235.652344 94.367188 236.6875 94.523438 237.6875 94.675781 C 239.570312 94.964844 241.515625 95.261719 243.339844 95.988281 C 244.988281 96.648438 246.476562 97.636719 247.910156 98.59375 C 248.699219 99.117188 249.515625 99.660156 250.339844 100.132812 C 252.480469 101.367188 254.816406 102.214844 257.285156 102.660156 C 257.816406 102.753906 258.441406 102.792969 259.097656 102.832031 C 260.8125 102.933594 262.757812 103.050781 264.007812 104.269531 C 265.171875 105.402344 265.445312 107.054688 264.816406 109.179688 C 264.316406 110.886719 263.347656 112.585938 262.574219 113.953125 C 262.355469 114.339844 262.144531 114.707031 261.980469 115.019531 C 261.332031 116.246094 260.839844 117.433594 260.476562 118.65625 L 259.953125 118.5 L 260.476562 118.65625 C 259.777344 121.007812 259.558594 123.523438 259.792969 126.566406 L 259.800781 126.703125 C 259.925781 128.3125 260.066406 130.140625 259.199219 131.660156 C 258.207031 133.390625 256.765625 133.355469 255.492188 133.324219 C 254.835938 133.308594 254.21875 133.296875 253.652344 133.5 C 252.105469 134.0625 251.109375 135.761719 250.140625 137.402344 C 249.761719 138.046875 249.40625 138.65625 249.015625 139.195312 C 246.351562 142.878906 244.035156 146.890625 241.796875 150.773438 C 241.460938 151.355469 241.128906 151.9375 240.789062 152.519531 C 240.199219 153.539062 239.6875 154.53125 239.878906 155.472656 C 240.007812 156.109375 240.203125 156.375 240.339844 156.410156 C 240.46875 156.445312 240.988281 156.433594 242.347656 154.882812 C 242.730469 154.449219 243.085938 153.921875 243.433594 153.414062 C 244.277344 152.171875 245.078125 150.996094 246.257812 151.015625 C 247.125 151.03125 247.953125 151.703125 248.855469 153.132812 C 250.304688 155.421875 251.453125 158.050781 252.277344 160.632812 C 252.347656 160.847656 252.296875 161.082031 252.148438 161.25 C 251.5625 161.914062 250.210938 163.539062 250.558594 164.449219 C 250.816406 165.121094 251.398438 165.597656 252.011719 166.101562 C 252.851562 166.789062 253.804688 167.566406 253.996094 168.964844 C 254.34375 171.566406 252.539062 172.574219 251.085938 173.382812 C 250.15625 173.898438 249.355469 174.34375 249.171875 175.070312 C 249.015625 175.6875 249.296875 176.570312 250.011719 177.699219 C 250.09375 177.828125 250.179688 177.957031 250.261719 178.085938 C 250.859375 179.015625 251.480469 179.972656 251.632812 181.128906 C 251.753906 182.050781 251.550781 182.933594 251.355469 183.78125 C 251.234375 184.296875 251.125 184.785156 251.082031 185.269531 C 250.921875 187.125 251.9375 189.074219 253.546875 190.003906 C 254.308594 190.441406 255.449219 190.375 256.554688 190.308594 C 257.46875 190.257812 258.417969 190.199219 259.21875 190.429688 C 260.203125 190.714844 260.828125 191.402344 261.066406 192.472656 C 261.820312 195.8125 257.296875 199.25 253.996094 201.757812 C 253.117188 202.425781 252.355469 203.003906 251.867188 203.453125 C 250.261719 204.9375 248.257812 206.785156 246.09375 208.144531 C 243.585938 209.71875 241.230469 210.417969 238.890625 210.285156 C 236.789062 210.164062 235.210938 209.214844 233.683594 208.300781 C 233.078125 207.933594 232.449219 207.558594 231.792969 207.230469 C 229.03125 205.871094 225.746094 205.027344 223.105469 204.347656 C 220.582031 203.699219 217.609375 203.09375 214.710938 203.511719 C 211.265625 204.011719 208.011719 206.542969 206.011719 210.28125 C 205.339844 211.535156 205.269531 213.054688 205.191406 214.667969 C 205.085938 216.90625 204.976562 219.222656 203.121094 220.78125 C 201.980469 221.742188 200.492188 222.339844 198.703125 222.5625 C 198.1875 222.625 197.648438 222.65625 197.09375 222.65625 " fill-opacity="1" fill-rule="nonzero"/></g><g clip-path="url(#aacd4a35a6)"><path fill="#f4b942" d="M 221.140625 100.472656 C 217.730469 100.472656 214.964844 103.238281 214.964844 106.648438 C 214.964844 110.054688 221.140625 118.992188 221.140625 118.992188 C 221.140625 118.992188 227.3125 110.054688 227.3125 106.648438 C 227.3125 103.238281 224.546875 100.472656 221.140625 100.472656 Z M 221.140625 109.570312 C 219.34375 109.570312 217.890625 108.117188 217.890625 106.320312 C 217.890625 104.527344 219.34375 103.074219 221.140625 103.074219 C 222.933594 103.074219 224.386719 104.527344 224.386719 106.320312 C 224.386719 108.117188 222.933594 109.570312 221.140625 109.570312 Z M 221.140625 109.570312 " fill-opacity="1" fill-rule="nonzero"/></g><g clip-path="url(#7d6f872931)"><path fill="#f4b942" d="M 163.265625 129.542969 C 159.855469 129.542969 157.09375 132.304688 157.09375 135.714844 C 157.09375 139.125 163.265625 148.0625 163.265625 148.0625 C 163.265625 148.0625 169.4375 139.125 169.4375 135.714844 C 169.4375 132.304688 166.675781 129.542969 163.265625 129.542969 Z M 163.265625 138.640625 C 161.472656 138.640625 160.015625 137.183594 160.015625 135.390625 C 160.015625 133.597656 161.472656 132.140625 163.265625 132.140625 C 165.058594 132.140625 166.511719 133.597656 166.511719 135.390625 C 166.511719 137.183594 165.058594 138.640625 163.265625 138.640625 Z M 163.265625 138.640625 " fill-opacity="1" fill-rule="nonzero"/></g><g clip-path="url(#399757a299)"><path fill="#f4b942" d="M 214.96875 175.246094 C 211.5625 175.246094 208.796875 178.011719 208.796875 181.421875 C 208.796875 184.832031 214.96875 193.765625 214.96875 193.765625 C 214.96875 193.765625 221.144531 184.832031 221.144531 181.421875 C 221.144531 178.011719 218.378906 175.246094 214.96875 175.246094 Z M 214.96875 184.34375 C 213.175781 184.34375 211.71875 182.890625 211.71875 181.097656 C 211.71875 179.304688 213.175781 177.847656 214.96875 177.847656 C 216.765625 177.847656 218.21875 179.304688 218.21875 181.097656 C 218.21875 182.890625 216.765625 184.34375 214.96875 184.34375 Z M 214.96875 184.34375 " fill-opacity="1" fill-rule="nonzero"/></g><g fill="#042698" fill-opacity="1"><g transform="translate(110.223926, 288.425752)"><g><path d="M 4.484375 0 L 2.625 0 L 2.625 -7.21875 L 0.25 -7.21875 L 0.25 -8.765625 L 6.859375 -8.765625 L 6.859375 -7.21875 L 4.484375 -7.21875 Z M 4.484375 0 "/></g></g></g><g fill="#042698" fill-opacity="1"><g transform="translate(118.352349, 288.425752)"><g><path d="M 9.0625 -4.390625 C 9.0625 -2.941406 8.703125 -1.828125 7.984375 -1.046875 C 7.265625 -0.265625 6.234375 0.125 4.890625 0.125 C 3.546875 0.125 2.515625 -0.265625 1.796875 -1.046875 C 1.078125 -1.828125 0.71875 -2.945312 0.71875 -4.40625 C 0.71875 -5.863281 1.078125 -6.976562 1.796875 -7.75 C 2.515625 -8.519531 3.550781 -8.90625 4.90625 -8.90625 C 6.25 -8.90625 7.273438 -8.515625 7.984375 -7.734375 C 8.703125 -6.960938 9.0625 -5.847656 9.0625 -4.390625 Z M 2.65625 -4.390625 C 2.65625 -3.410156 2.84375 -2.671875 3.21875 -2.171875 C 3.59375 -1.679688 4.148438 -1.4375 4.890625 -1.4375 C 6.367188 -1.4375 7.109375 -2.421875 7.109375 -4.390625 C 7.109375 -6.367188 6.375 -7.359375 4.90625 -7.359375 C 4.164062 -7.359375 3.601562 -7.109375 3.21875 -6.609375 C 2.84375 -6.109375 2.65625 -5.367188 2.65625 -4.390625 Z M 2.65625 -4.390625 "/></g></g></g><g fill="#042698" fill-opacity="1"><g transform="translate(129.142215, 288.425752)"><g><path d="M 8.234375 -8.765625 L 8.234375 -3.09375 C 8.234375 -2.445312 8.085938 -1.878906 7.796875 -1.390625 C 7.515625 -0.898438 7.097656 -0.523438 6.546875 -0.265625 C 6.003906 -0.00390625 5.359375 0.125 4.609375 0.125 C 3.484375 0.125 2.609375 -0.160156 1.984375 -0.734375 C 1.359375 -1.316406 1.046875 -2.113281 1.046875 -3.125 L 1.046875 -8.765625 L 2.890625 -8.765625 L 2.890625 -3.40625 C 2.890625 -2.726562 3.023438 -2.226562 3.296875 -1.90625 C 3.578125 -1.59375 4.03125 -1.4375 4.65625 -1.4375 C 5.257812 -1.4375 5.695312 -1.59375 5.96875 -1.90625 C 6.25 -2.226562 6.390625 -2.726562 6.390625 -3.40625 L 6.390625 -8.765625 Z M 8.234375 -8.765625 "/></g></g></g><g fill="#042698" fill-opacity="1"><g transform="translate(139.440554, 288.425752)"><g><path d="M 4.484375 0 L 2.625 0 L 2.625 -7.21875 L 0.25 -7.21875 L 0.25 -8.765625 L 6.859375 -8.765625 L 6.859375 -7.21875 L 4.484375 -7.21875 Z M 4.484375 0 "/></g></g></g><g fill="#042698" fill-opacity="1"><g transform="translate(147.568977, 288.425752)"><g/></g></g><g fill="#042698" fill-opacity="1"><g transform="translate(151.777167, 288.425752)"><g><path d="M 6.46875 0 L 5.828125 -2.09375 L 2.640625 -2.09375 L 2 0 L 0 0 L 3.09375 -8.796875 L 5.359375 -8.796875 L 8.46875 0 Z M 5.390625 -3.640625 C 4.804688 -5.535156 4.472656 -6.601562 4.390625 -6.84375 C 4.316406 -7.09375 4.265625 -7.289062 4.234375 -7.4375 C 4.109375 -6.925781 3.734375 -5.660156 3.109375 -3.640625 Z M 4.265625 -9.46875 C 4.015625 -9.644531 3.644531 -9.929688 3.15625 -10.328125 C 2.675781 -10.722656 2.296875 -11.050781 2.015625 -11.3125 L 2.015625 -11.4375 L 4.078125 -11.4375 C 4.328125 -11.03125 4.796875 -10.429688 5.484375 -9.640625 L 5.484375 -9.46875 Z M 4.265625 -9.46875 "/></g></g></g><g fill="#042698" fill-opacity="1"><g transform="translate(161.266286, 288.425752)"><g/></g></g><g fill="#042698" fill-opacity="1"><g transform="translate(165.474476, 288.425752)"><g><path d="M 2.96875 -4.640625 L 3.578125 -4.640625 C 4.148438 -4.640625 4.578125 -4.75 4.859375 -4.96875 C 5.140625 -5.195312 5.28125 -5.53125 5.28125 -5.96875 C 5.28125 -6.40625 5.160156 -6.726562 4.921875 -6.9375 C 4.679688 -7.144531 4.3125 -7.25 3.8125 -7.25 L 2.96875 -7.25 Z M 7.15625 -6.03125 C 7.15625 -5.09375 6.859375 -4.375 6.265625 -3.875 C 5.679688 -3.375 4.847656 -3.125 3.765625 -3.125 L 2.96875 -3.125 L 2.96875 0 L 1.109375 0 L 1.109375 -8.765625 L 3.90625 -8.765625 C 4.96875 -8.765625 5.773438 -8.535156 6.328125 -8.078125 C 6.878906 -7.617188 7.15625 -6.9375 7.15625 -6.03125 Z M 7.15625 -6.03125 "/></g></g></g><g fill="#042698" fill-opacity="1"><g transform="translate(174.202323, 288.425752)"><g><path d="M 9.0625 -4.390625 C 9.0625 -2.941406 8.703125 -1.828125 7.984375 -1.046875 C 7.265625 -0.265625 6.234375 0.125 4.890625 0.125 C 3.546875 0.125 2.515625 -0.265625 1.796875 -1.046875 C 1.078125 -1.828125 0.71875 -2.945312 0.71875 -4.40625 C 0.71875 -5.863281 1.078125 -6.976562 1.796875 -7.75 C 2.515625 -8.519531 3.550781 -8.90625 4.90625 -8.90625 C 6.25 -8.90625 7.273438 -8.515625 7.984375 -7.734375 C 8.703125 -6.960938 9.0625 -5.847656 9.0625 -4.390625 Z M 2.65625 -4.390625 C 2.65625 -3.410156 2.84375 -2.671875 3.21875 -2.171875 C 3.59375 -1.679688 4.148438 -1.4375 4.890625 -1.4375 C 6.367188 -1.4375 7.109375 -2.421875 7.109375 -4.390625 C 7.109375 -6.367188 6.375 -7.359375 4.90625 -7.359375 C 4.164062 -7.359375 3.601562 -7.109375 3.21875 -6.609375 C 2.84375 -6.109375 2.65625 -5.367188 2.65625 -4.390625 Z M 2.65625 -4.390625 "/></g></g></g><g fill="#042698" fill-opacity="1"><g transform="translate(184.992189, 288.425752)"><g><path d="M 2.96875 -4.875 L 3.5625 -4.875 C 4.144531 -4.875 4.578125 -4.972656 4.859375 -5.171875 C 5.140625 -5.367188 5.28125 -5.675781 5.28125 -6.09375 C 5.28125 -6.507812 5.132812 -6.804688 4.84375 -6.984375 C 4.5625 -7.160156 4.125 -7.25 3.53125 -7.25 L 2.96875 -7.25 Z M 2.96875 -3.359375 L 2.96875 0 L 1.109375 0 L 1.109375 -8.765625 L 3.65625 -8.765625 C 4.84375 -8.765625 5.722656 -8.546875 6.296875 -8.109375 C 6.867188 -7.679688 7.15625 -7.023438 7.15625 -6.140625 C 7.15625 -5.617188 7.015625 -5.15625 6.734375 -4.75 C 6.453125 -4.351562 6.050781 -4.039062 5.53125 -3.8125 C 6.851562 -1.84375 7.710938 -0.570312 8.109375 0 L 6.046875 0 L 3.953125 -3.359375 Z M 2.96875 -3.359375 "/></g></g></g><g fill="#042698" fill-opacity="1"><g transform="translate(194.115656, 288.425752)"><g><path d="M 4.484375 0 L 2.625 0 L 2.625 -7.21875 L 0.25 -7.21875 L 0.25 -8.765625 L 6.859375 -8.765625 L 6.859375 -7.21875 L 4.484375 -7.21875 Z M 4.484375 0 "/></g></g></g><g fill="#042698" fill-opacity="1"><g transform="translate(202.24408, 288.425752)"><g><path d="M 6.15625 0 L 1.109375 0 L 1.109375 -8.765625 L 6.15625 -8.765625 L 6.15625 -7.25 L 2.96875 -7.25 L 2.96875 -5.3125 L 5.9375 -5.3125 L 5.9375 -3.796875 L 2.96875 -3.796875 L 2.96875 -1.53125 L 6.15625 -1.53125 Z M 2.53125 -9.46875 L 2.53125 -9.640625 C 3.21875 -10.429688 3.691406 -11.03125 3.953125 -11.4375 L 6 -11.4375 L 6 -11.3125 C 5.789062 -11.101562 5.4375 -10.789062 4.9375 -10.375 C 4.4375 -9.96875 4.039062 -9.664062 3.75 -9.46875 Z M 2.53125 -9.46875 "/></g></g></g><g fill="#042698" fill-opacity="1"><g transform="translate(210.138731, 288.425752)"><g><path d="M 6.15625 0 L 1.109375 0 L 1.109375 -8.765625 L 6.15625 -8.765625 L 6.15625 -7.25 L 2.96875 -7.25 L 2.96875 -5.3125 L 5.9375 -5.3125 L 5.9375 -3.796875 L 2.96875 -3.796875 L 2.96875 -1.53125 L 6.15625 -1.53125 Z M 6.15625 0 "/></g></g></g><g fill="#042698" fill-opacity="1"><g transform="translate(218.033382, 288.425752)"><g/></g></g><g fill="#042698" fill-opacity="1"><g transform="translate(222.241571, 288.425752)"><g><path d="M 8.375 -4.46875 C 8.375 -3.019531 7.960938 -1.910156 7.140625 -1.140625 C 6.316406 -0.378906 5.132812 0 3.59375 0 L 1.109375 0 L 1.109375 -8.765625 L 3.859375 -8.765625 C 5.285156 -8.765625 6.394531 -8.382812 7.1875 -7.625 C 7.976562 -6.875 8.375 -5.820312 8.375 -4.46875 Z M 6.453125 -4.421875 C 6.453125 -6.304688 5.617188 -7.25 3.953125 -7.25 L 2.96875 -7.25 L 2.96875 -1.53125 L 3.765625 -1.53125 C 5.554688 -1.53125 6.453125 -2.492188 6.453125 -4.421875 Z M 6.453125 -4.421875 "/></g></g></g><g fill="#042698" fill-opacity="1"><g transform="translate(232.348087, 288.425752)"><g><path d="M 6.15625 0 L 1.109375 0 L 1.109375 -8.765625 L 6.15625 -8.765625 L 6.15625 -7.25 L 2.96875 -7.25 L 2.96875 -5.3125 L 5.9375 -5.3125 L 5.9375 -3.796875 L 2.96875 -3.796875 L 2.96875 -1.53125 L 6.15625 -1.53125 Z M 6.15625 0 "/></g></g></g><g fill="#042698" fill-opacity="1"><g transform="translate(240.242738, 288.425752)"><g/></g></g><g fill="#042698" fill-opacity="1"><g transform="translate(244.450928, 288.425752)"><g><path d="M 2.96875 -4.640625 L 3.578125 -4.640625 C 4.148438 -4.640625 4.578125 -4.75 4.859375 -4.96875 C 5.140625 -5.195312 5.28125 -5.53125 5.28125 -5.96875 C 5.28125 -6.40625 5.160156 -6.726562 4.921875 -6.9375 C 4.679688 -7.144531 4.3125 -7.25 3.8125 -7.25 L 2.96875 -7.25 Z M 7.15625 -6.03125 C 7.15625 -5.09375 6.859375 -4.375 6.265625 -3.875 C 5.679688 -3.375 4.847656 -3.125 3.765625 -3.125 L 2.96875 -3.125 L 2.96875 0 L 1.109375 0 L 1.109375 -8.765625 L 3.90625 -8.765625 C 4.96875 -8.765625 5.773438 -8.535156 6.328125 -8.078125 C 6.878906 -7.617188 7.15625 -6.9375 7.15625 -6.03125 Z M 7.15625 -6.03125 "/></g></g></g><g fill="#042698" fill-opacity="1"><g transform="translate(253.178782, 288.425752)"><g><path d="M 6.46875 0 L 5.828125 -2.09375 L 2.640625 -2.09375 L 2 0 L 0 0 L 3.09375 -8.796875 L 5.359375 -8.796875 L 8.46875 0 Z M 5.390625 -3.640625 C 4.804688 -5.535156 4.472656 -6.601562 4.390625 -6.84375 C 4.316406 -7.09375 4.265625 -7.289062 4.234375 -7.4375 C 4.109375 -6.925781 3.734375 -5.660156 3.109375 -3.640625 Z M 5.390625 -3.640625 "/></g></g></g><g fill="#042698" fill-opacity="1"><g transform="translate(262.667908, 288.425752)"><g><path d="M 6.28125 -2.4375 C 6.28125 -1.644531 5.992188 -1.019531 5.421875 -0.5625 C 4.847656 -0.101562 4.054688 0.125 3.046875 0.125 C 2.109375 0.125 1.28125 -0.0507812 0.5625 -0.40625 L 0.5625 -2.140625 C 1.15625 -1.867188 1.65625 -1.679688 2.0625 -1.578125 C 2.476562 -1.472656 2.851562 -1.421875 3.1875 -1.421875 C 3.59375 -1.421875 3.90625 -1.5 4.125 -1.65625 C 4.34375 -1.8125 4.453125 -2.039062 4.453125 -2.34375 C 4.453125 -2.519531 4.40625 -2.671875 4.3125 -2.796875 C 4.21875 -2.929688 4.078125 -3.0625 3.890625 -3.1875 C 3.703125 -3.3125 3.320312 -3.507812 2.75 -3.78125 C 2.21875 -4.03125 1.816406 -4.269531 1.546875 -4.5 C 1.273438 -4.738281 1.0625 -5.007812 0.90625 -5.3125 C 0.75 -5.625 0.671875 -5.988281 0.671875 -6.40625 C 0.671875 -7.175781 0.929688 -7.78125 1.453125 -8.21875 C 1.984375 -8.664062 2.710938 -8.890625 3.640625 -8.890625 C 4.085938 -8.890625 4.519531 -8.832031 4.9375 -8.71875 C 5.351562 -8.613281 5.785156 -8.46875 6.234375 -8.28125 L 5.640625 -6.828125 C 5.171875 -7.023438 4.78125 -7.160156 4.46875 -7.234375 C 4.164062 -7.304688 3.867188 -7.34375 3.578125 -7.34375 C 3.222656 -7.34375 2.953125 -7.257812 2.765625 -7.09375 C 2.578125 -6.9375 2.484375 -6.722656 2.484375 -6.453125 C 2.484375 -6.296875 2.519531 -6.15625 2.59375 -6.03125 C 2.664062 -5.90625 2.785156 -5.785156 2.953125 -5.671875 C 3.117188 -5.554688 3.515625 -5.351562 4.140625 -5.0625 C 4.953125 -4.664062 5.507812 -4.269531 5.8125 -3.875 C 6.125 -3.488281 6.28125 -3.007812 6.28125 -2.4375 Z M 6.28125 -2.4375 "/></g></g></g><g fill="#042698" fill-opacity="1"><g transform="translate(270.448665, 288.425752)"><g><path d="M 6.28125 -2.4375 C 6.28125 -1.644531 5.992188 -1.019531 5.421875 -0.5625 C 4.847656 -0.101562 4.054688 0.125 3.046875 0.125 C 2.109375 0.125 1.28125 -0.0507812 0.5625 -0.40625 L 0.5625 -2.140625 C 1.15625 -1.867188 1.65625 -1.679688 2.0625 -1.578125 C 2.476562 -1.472656 2.851562 -1.421875 3.1875 -1.421875 C 3.59375 -1.421875 3.90625 -1.5 4.125 -1.65625 C 4.34375 -1.8125 4.453125 -2.039062 4.453125 -2.34375 C 4.453125 -2.519531 4.40625 -2.671875 4.3125 -2.796875 C 4.21875 -2.929688 4.078125 -3.0625 3.890625 -3.1875 C 3.703125 -3.3125 3.320312 -3.507812 2.75 -3.78125 C 2.21875 -4.03125 1.816406 -4.269531 1.546875 -4.5 C 1.273438 -4.738281 1.0625 -5.007812 0.90625 -5.3125 C 0.75 -5.625 0.671875 -5.988281 0.671875 -6.40625 C 0.671875 -7.175781 0.929688 -7.78125 1.453125 -8.21875 C 1.984375 -8.664062 2.710938 -8.890625 3.640625 -8.890625 C 4.085938 -8.890625 4.519531 -8.832031 4.9375 -8.71875 C 5.351562 -8.613281 5.785156 -8.46875 6.234375 -8.28125 L 5.640625 -6.828125 C 5.171875 -7.023438 4.78125 -7.160156 4.46875 -7.234375 C 4.164062 -7.304688 3.867188 -7.34375 3.578125 -7.34375 C 3.222656 -7.34375 2.953125 -7.257812 2.765625 -7.09375 C 2.578125 -6.9375 2.484375 -6.722656 2.484375 -6.453125 C 2.484375 -6.296875 2.519531 -6.15625 2.59375 -6.03125 C 2.664062 -5.90625 2.785156 -5.785156 2.953125 -5.671875 C 3.117188 -5.554688 3.515625 -5.351562 4.140625 -5.0625 C 4.953125 -4.664062 5.507812 -4.269531 5.8125 -3.875 C 6.125 -3.488281 6.28125 -3.007812 6.28125 -2.4375 Z M 6.28125 -2.4375 "/></g></g></g><g fill="#369694" fill-opacity="1"><g transform="translate(135.07327, 266.488352)"><g><path d="M 7.09375 -25.546875 L 7.34375 -25.171875 C 6.757812 -22.867188 5.734375 -20.078125 4.265625 -16.796875 L 0.4375 -16.796875 C 1.238281 -20.242188 1.820312 -23.160156 2.1875 -25.546875 Z M 7.09375 -25.546875 "/></g></g></g><g fill="#369694" fill-opacity="1"><g transform="translate(155.036577, 266.488352)"><g><path d="M 8.640625 -13.53125 L 10.421875 -13.53125 C 12.085938 -13.53125 13.332031 -13.859375 14.15625 -14.515625 C 14.988281 -15.171875 15.40625 -16.128906 15.40625 -17.390625 C 15.40625 -18.660156 15.054688 -19.597656 14.359375 -20.203125 C 13.660156 -20.804688 12.570312 -21.109375 11.09375 -21.109375 L 8.640625 -21.109375 Z M 20.875 -17.578125 C 20.875 -14.828125 20.015625 -12.722656 18.296875 -11.265625 C 16.578125 -9.816406 14.128906 -9.09375 10.953125 -9.09375 L 8.640625 -9.09375 L 8.640625 0 L 3.21875 0 L 3.21875 -25.546875 L 11.375 -25.546875 C 14.476562 -25.546875 16.835938 -24.878906 18.453125 -23.546875 C 20.066406 -22.210938 20.875 -20.222656 20.875 -17.578125 Z M 20.875 -17.578125 "/></g></g></g><g fill="#369694" fill-opacity="1"><g transform="translate(189.7118, 266.488352)"><g><path d="M 18.859375 0 L 17 -6.078125 L 7.6875 -6.078125 L 5.84375 0 L 0 0 L 9.015625 -25.65625 L 15.640625 -25.65625 L 24.703125 0 Z M 15.71875 -10.625 C 14 -16.132812 13.03125 -19.25 12.8125 -19.96875 C 12.601562 -20.695312 12.453125 -21.269531 12.359375 -21.6875 C 11.972656 -20.195312 10.867188 -16.507812 9.046875 -10.625 Z M 15.71875 -10.625 "/></g></g></g><g fill="#369694" fill-opacity="1"><g transform="translate(226.606041, 266.488352)"><g><path d="M 18.296875 -7.09375 C 18.296875 -4.789062 17.460938 -2.972656 15.796875 -1.640625 C 14.140625 -0.316406 11.832031 0.34375 8.875 0.34375 C 6.15625 0.34375 3.742188 -0.164062 1.640625 -1.1875 L 1.640625 -6.21875 C 3.367188 -5.445312 4.828125 -4.90625 6.015625 -4.59375 C 7.210938 -4.28125 8.304688 -4.125 9.296875 -4.125 C 10.484375 -4.125 11.394531 -4.347656 12.03125 -4.796875 C 12.664062 -5.253906 12.984375 -5.929688 12.984375 -6.828125 C 12.984375 -7.328125 12.84375 -7.769531 12.5625 -8.15625 C 12.28125 -8.550781 11.867188 -8.929688 11.328125 -9.296875 C 10.785156 -9.660156 9.679688 -10.238281 8.015625 -11.03125 C 6.460938 -11.757812 5.296875 -12.460938 4.515625 -13.140625 C 3.734375 -13.816406 3.109375 -14.601562 2.640625 -15.5 C 2.171875 -16.394531 1.9375 -17.445312 1.9375 -18.65625 C 1.9375 -20.914062 2.703125 -22.691406 4.234375 -23.984375 C 5.765625 -25.273438 7.882812 -25.921875 10.59375 -25.921875 C 11.914062 -25.921875 13.179688 -25.765625 14.390625 -25.453125 C 15.597656 -25.140625 16.859375 -24.695312 18.171875 -24.125 L 16.4375 -19.90625 C 15.070312 -20.46875 13.941406 -20.859375 13.046875 -21.078125 C 12.148438 -21.296875 11.273438 -21.40625 10.421875 -21.40625 C 9.390625 -21.40625 8.597656 -21.164062 8.046875 -20.6875 C 7.503906 -20.21875 7.234375 -19.597656 7.234375 -18.828125 C 7.234375 -18.347656 7.34375 -17.929688 7.5625 -17.578125 C 7.789062 -17.222656 8.144531 -16.878906 8.625 -16.546875 C 9.101562 -16.210938 10.25 -15.613281 12.0625 -14.75 C 14.445312 -13.613281 16.082031 -12.46875 16.96875 -11.3125 C 17.851562 -10.164062 18.296875 -8.757812 18.296875 -7.09375 Z M 18.296875 -7.09375 "/></g></g></g><g fill="#369694" fill-opacity="1"><g transform="translate(258.520602, 266.488352)"><g><path d="M 18.296875 -7.09375 C 18.296875 -4.789062 17.460938 -2.972656 15.796875 -1.640625 C 14.140625 -0.316406 11.832031 0.34375 8.875 0.34375 C 6.15625 0.34375 3.742188 -0.164062 1.640625 -1.1875 L 1.640625 -6.21875 C 3.367188 -5.445312 4.828125 -4.90625 6.015625 -4.59375 C 7.210938 -4.28125 8.304688 -4.125 9.296875 -4.125 C 10.484375 -4.125 11.394531 -4.347656 12.03125 -4.796875 C 12.664062 -5.253906 12.984375 -5.929688 12.984375 -6.828125 C 12.984375 -7.328125 12.84375 -7.769531 12.5625 -8.15625 C 12.28125 -8.550781 11.867188 -8.929688 11.328125 -9.296875 C 10.785156 -9.660156 9.679688 -10.238281 8.015625 -11.03125 C 6.460938 -11.757812 5.296875 -12.460938 4.515625 -13.140625 C 3.734375 -13.816406 3.109375 -14.601562 2.640625 -15.5 C 2.171875 -16.394531 1.9375 -17.445312 1.9375 -18.65625 C 1.9375 -20.914062 2.703125 -22.691406 4.234375 -23.984375 C 5.765625 -25.273438 7.882812 -25.921875 10.59375 -25.921875 C 11.914062 -25.921875 13.179688 -25.765625 14.390625 -25.453125 C 15.597656 -25.140625 16.859375 -24.695312 18.171875 -24.125 L 16.4375 -19.90625 C 15.070312 -20.46875 13.941406 -20.859375 13.046875 -21.078125 C 12.148438 -21.296875 11.273438 -21.40625 10.421875 -21.40625 C 9.390625 -21.40625 8.597656 -21.164062 8.046875 -20.6875 C 7.503906 -20.21875 7.234375 -19.597656 7.234375 -18.828125 C 7.234375 -18.347656 7.34375 -17.929688 7.5625 -17.578125 C 7.789062 -17.222656 8.144531 -16.878906 8.625 -16.546875 C 9.101562 -16.210938 10.25 -15.613281 12.0625 -14.75 C 14.445312 -13.613281 16.082031 -12.46875 16.96875 -11.3125 C 17.851562 -10.164062 18.296875 -8.757812 18.296875 -7.09375 Z M 18.296875 -7.09375 "/></g></g></g><g fill="#369694" fill-opacity="1"><g transform="translate(290.435615, 266.488352)"><g/></g></g><g clip-path="url(#56975dc45e)"><path fill="#f4b942" d="M 118.644531 239.652344 C 113.472656 239.652344 109.28125 243.84375 109.28125 249.015625 C 109.28125 254.1875 118.644531 267.742188 118.644531 267.742188 C 118.644531 267.742188 128.003906 254.1875 128.003906 249.015625 C 128.003906 243.84375 123.8125 239.652344 118.644531 239.652344 Z M 118.644531 253.449219 C 115.921875 253.449219 113.714844 251.246094 113.714844 248.523438 C 113.714844 245.800781 115.921875 243.597656 118.644531 243.597656 C 121.363281 243.597656 123.570312 245.800781 123.570312 248.523438 C 123.570312 251.246094 121.363281 253.449219 118.644531 253.449219 Z M 118.644531 253.449219 " fill-opacity="1" fill-rule="nonzero"/></g><g clip-path="url(#bf1a153dc7)"><g clip-path="url(#bae4518afa)"><path fill="#369694" d="M 112.753906 243.21875 L 124.535156 243.21875 L 124.535156 255 L 112.753906 255 Z M 112.753906 243.21875 " fill-opacity="1" fill-rule="nonzero"/></g></g><g clip-path="url(#fad3481a9e)"><g clip-path="url(#91f7dddcec)"><path stroke-linecap="butt" transform="matrix(0.447419, 0, 0, 0.447419, 112.754498, 243.218876)" fill="none" stroke-linejoin="miter" d="M 13.16446 -0.000281679 C 5.89185 -0.000281679 -0.00132235 5.89289 -0.00132235 13.165501 C -0.00132235 20.438112 5.89185 26.331284 13.16446 26.331284 C 20.437071 26.331284 26.330243 20.438112 26.330243 13.165501 C 26.330243 5.89289 20.437071 -0.000281679 13.16446 -0.000281679 Z M 13.16446 -0.000281679 " stroke="#f5f5f5" stroke-width="10.05768" stroke-opacity="1" stroke-miterlimit="4"/></g></g></svg>